<svg width="200" height="200" viewBox="0 0 200 200" fill="none" xmlns="http://www.w3.org/2000/svg">
<path d="M26.9463 149.47L93.8799 188.113C95.7812 189.207 97.9363 189.783 100.13 189.783C102.323 189.783 104.479 189.207 106.38 188.113L173.314 149.469C175.212 148.369 176.788 146.791 177.885 144.891C178.981 142.991 179.561 140.837 179.564 138.644V61.3559C179.561 59.1624 178.982 57.0082 177.885 55.1086C176.788 53.209 175.212 51.6304 173.314 50.5305L106.38 11.8863C104.479 10.7925 102.324 10.2168 100.13 10.2168C97.9367 10.2168 95.7816 10.7925 93.8803 11.8863L26.9463 50.5305C25.0484 51.6303 23.4724 53.2089 22.3756 55.1085C21.2789 57.0082 20.6998 59.1624 20.6963 61.3559V138.644C20.6998 140.838 21.2789 142.992 22.3756 144.891C23.4724 146.791 25.0484 148.37 26.9463 149.47ZM106.38 26.3203L167.064 61.3559V130.644L106.38 96.3445V26.3203ZM100.11 107.159L161.499 141.857L100.131 177.287L38.7416 141.846L100.11 107.159ZM33.1963 61.3559L93.8799 26.3203V96.3203L33.1963 130.621V61.3559Z" fill="white"/>
</svg>
