<svg width="200" height="200" viewBox="0 0 200 200" fill="none" xmlns="http://www.w3.org/2000/svg">
<path d="M168.75 150C165.966 150.013 163.221 150.654 160.719 151.875L133.844 125H112.5V137.5H128.663L151.881 160.719C150.659 163.221 150.016 165.966 150 168.75C150 172.458 151.1 176.084 153.16 179.167C155.22 182.25 158.149 184.654 161.575 186.073C165.001 187.492 168.771 187.863 172.408 187.14C176.045 186.416 179.386 184.63 182.008 182.008C184.63 179.386 186.416 176.045 187.14 172.408C187.863 168.771 187.492 165.001 186.073 161.575C184.654 158.149 182.25 155.22 179.167 153.16C176.084 151.1 172.458 150 168.75 150ZM168.75 175C167.514 175 166.305 174.633 165.278 173.947C164.25 173.26 163.449 172.284 162.976 171.142C162.503 170 162.379 168.743 162.62 167.531C162.861 166.318 163.456 165.205 164.331 164.331C165.205 163.457 166.318 162.861 167.531 162.62C168.743 162.379 170 162.503 171.142 162.976C172.284 163.449 173.26 164.25 173.947 165.278C174.633 166.305 175 167.514 175 168.75C175 170.408 174.342 171.997 173.169 173.169C171.997 174.342 170.408 175 168.75 175ZM168.75 81.25C164.885 81.2615 161.118 82.4692 157.967 84.7074C154.815 86.9455 152.434 90.1043 151.15 93.75H112.5V106.25H151.15C152.301 109.482 154.319 112.336 156.983 114.499C159.646 116.662 162.853 118.052 166.253 118.516C169.653 118.98 173.115 118.5 176.26 117.129C179.406 115.759 182.114 113.55 184.09 110.744C186.065 107.939 187.231 104.644 187.46 101.22C187.69 97.7966 186.974 94.3758 185.39 91.3316C183.807 88.2874 181.418 85.737 178.483 83.959C175.548 82.181 172.181 81.2439 168.75 81.25ZM168.75 106.25C167.514 106.25 166.305 105.883 165.278 105.197C164.25 104.51 163.449 103.534 162.976 102.392C162.503 101.25 162.379 99.9931 162.62 98.7807C162.861 97.5683 163.456 96.4547 164.331 95.5806C165.205 94.7065 166.318 94.1112 167.531 93.8701C168.743 93.6289 170 93.7527 171.142 94.2258C172.284 94.6988 173.26 95.4999 173.947 96.5277C174.633 97.5555 175 98.7639 175 100C175 101.658 174.342 103.247 173.169 104.419C171.997 105.592 170.408 106.25 168.75 106.25ZM168.75 12.5C163.779 12.505 159.012 14.482 155.497 17.9972C151.982 21.5125 150.005 26.2787 150 31.25C150.021 34.2441 150.768 37.1885 152.175 39.8313L128.725 62.5H112.5V75H133.775L161.275 48.425C163.83 49.539 166.6 50.0693 169.386 49.9773C172.171 49.8853 174.901 49.1734 177.376 47.8933C179.852 46.6133 182.011 44.7973 183.696 42.5776C185.381 40.358 186.55 37.7905 187.118 35.062C187.686 32.3336 187.638 29.5129 186.978 26.8053C186.318 24.0976 185.062 21.5712 183.303 19.41C181.544 17.2488 179.324 15.5071 176.807 14.3117C174.289 13.1164 171.537 12.4974 168.75 12.5ZM168.75 37.5C167.514 37.5 166.305 37.1334 165.278 36.4467C164.25 35.7599 163.449 34.7838 162.976 33.6418C162.503 32.4997 162.379 31.2431 162.62 30.0307C162.861 28.8183 163.456 27.7047 164.331 26.8306C165.205 25.9565 166.318 25.3612 167.531 25.1201C168.743 24.8789 170 25.0027 171.142 25.4758C172.284 25.9488 173.26 26.7499 173.947 27.7777C174.633 28.8055 175 30.0139 175 31.25C175 32.9076 174.342 34.4973 173.169 35.6694C171.997 36.8415 170.408 37.5 168.75 37.5Z" fill="white"/>
<path d="M112.5 37.5H125V25H112.5C108.938 25.0119 105.421 25.7893 102.186 27.2796C98.9506 28.7699 96.0737 30.9381 93.75 33.6375C91.4263 30.9381 88.5494 28.7699 85.3144 27.2796C82.0793 25.7893 78.5618 25.0119 75 25H68.75C53.8366 25.0165 39.5389 30.9482 28.9935 41.4935C18.4482 52.0389 12.5165 66.3366 12.5 81.25V118.75C12.5165 133.663 18.4482 147.961 28.9935 158.506C39.5389 169.052 53.8366 174.983 68.75 175H75C78.5618 174.988 82.0793 174.211 85.3144 172.72C88.5494 171.23 91.4263 169.062 93.75 166.363C96.0737 169.062 98.9506 171.23 102.186 172.72C105.421 174.211 108.938 174.988 112.5 175H125V162.5H112.5C109.186 162.497 106.008 161.179 103.665 158.835C101.321 156.492 100.003 153.314 100 150V50C100.003 46.6858 101.321 43.5083 103.665 41.1648C106.008 38.8213 109.186 37.5033 112.5 37.5ZM75 162.5H68.75C58.2403 162.481 48.088 158.682 40.1474 151.798C32.2068 144.913 27.0078 135.401 25.5 125H37.5V112.5H25V87.5H43.75C48.7213 87.495 53.4875 85.518 57.0028 82.0028C60.518 78.4875 62.495 73.7213 62.5 68.75V56.25H50V68.75C50 70.4076 49.3415 71.9973 48.1694 73.1694C46.9973 74.3415 45.4076 75 43.75 75H25.5C27.0078 64.599 32.2068 55.0874 40.1474 48.2025C48.088 41.3176 58.2403 37.5188 68.75 37.5H75C78.3142 37.5033 81.4917 38.8213 83.8352 41.1648C86.1787 43.5083 87.4967 46.6858 87.5 50V75H75V87.5H87.5V112.5H75C70.0287 112.505 65.2625 114.482 61.7472 117.997C58.232 121.512 56.255 126.279 56.25 131.25V143.75H68.75V131.25C68.75 129.592 69.4085 128.003 70.5806 126.831C71.7527 125.658 73.3424 125 75 125H87.5V150C87.4967 153.314 86.1787 156.492 83.8352 158.835C81.4917 161.179 78.3142 162.497 75 162.5Z" fill="white"/>
</svg>
