<svg width="200" height="200" viewBox="0 0 200 200" fill="none" xmlns="http://www.w3.org/2000/svg">
<path d="M63.5836 136.417L88.6335 111.367M36.1669 174.65L112.475 152.85C135.167 146.367 150.808 128.408 150.808 104.817C150.798 101.27 150.384 97.7362 149.575 94.2832C148.825 91.0166 149.567 87.5166 151.933 85.1416L172.433 64.6415C175.85 61.2249 175.85 55.6832 172.433 52.2665L147.725 27.5665C146.912 26.7527 145.947 26.107 144.885 25.6665C143.822 25.226 142.684 24.9992 141.533 24.9992C140.383 24.9992 139.245 25.226 138.182 25.6665C137.12 26.107 136.154 26.7527 135.342 27.5665L114.884 48.0249C112.517 50.3915 109.025 51.1332 105.767 50.3915C102.309 49.6082 98.7669 49.1832 95.1835 49.1832C71.5835 49.1832 53.6252 64.8249 47.1419 87.5166L25.3502 163.825C24.9172 165.327 24.8945 166.918 25.2845 168.432C25.6746 169.946 26.4632 171.328 27.5682 172.434C28.6733 173.54 30.0545 174.329 31.5682 174.72C33.0818 175.112 34.6727 175.09 36.1752 174.658" stroke="white" stroke-width="12.5" stroke-linecap="round" stroke-linejoin="round"/>
</svg>
