<svg width="100" height="100" viewBox="0 0 100 100" fill="none" xmlns="http://www.w3.org/2000/svg">
<path d="M69.5312 10.9375C61.6836 10.9375 54.7187 14.0352 50 19.3594C45.2813 14.0352 38.3164 10.9375 30.4688 10.9375C23.6337 10.9458 17.0809 13.6647 12.2478 18.4978C7.41466 23.3309 4.69577 29.8837 4.6875 36.7188C4.6875 64.9766 46.0195 87.5547 47.7773 88.5039C48.4604 88.8718 49.2241 89.0644 50 89.0644C50.7759 89.0644 51.5396 88.8718 52.2227 88.5039C53.9805 87.5547 95.3125 64.9766 95.3125 36.7188C95.3042 29.8837 92.5853 23.3309 87.7522 18.4978C82.9191 13.6647 76.3663 10.9458 69.5312 10.9375ZM67.3867 66.5469C61.9464 71.1634 56.1307 75.3184 50 78.9688C43.8693 75.3184 38.0536 71.1634 32.6133 66.5469C24.1484 59.2852 14.0625 48.2109 14.0625 36.7188C14.0625 32.3675 15.791 28.1945 18.8678 25.1178C21.9445 22.041 26.1175 20.3125 30.4688 20.3125C37.4219 20.3125 43.2422 23.9844 45.6602 29.8984C46.0121 30.7606 46.6128 31.4984 47.3858 32.0177C48.1587 32.537 49.0688 32.8144 50 32.8144C50.9312 32.8144 51.8413 32.537 52.6142 32.0177C53.3872 31.4984 53.9879 30.7606 54.3398 29.8984C56.7578 23.9844 62.5781 20.3125 69.5312 20.3125C73.8825 20.3125 78.0555 22.041 81.1322 25.1178C84.209 28.1945 85.9375 32.3675 85.9375 36.7188C85.9375 48.2109 75.8516 59.2852 67.3867 66.5469Z" fill="black"/>
</svg>
