<svg width="76" height="76" viewBox="0 0 76 76" fill="none" xmlns="http://www.w3.org/2000/svg">
<path d="M73.3898 35.7384L73.1913 35.7057C66.9564 31.4085 61.147 26.548 55.6739 21.0346L49.6255 14.633C47.1751 11.8811 44.7943 8.83231 42.5287 5.92442L39.7761 1.97242C39.4387 1.76417 39.018 1.4192 38.6453 1.31826C37.8336 0.961713 36.9582 1.39278 36.2958 1.90192L31.3149 8.47473C23.324 18.5014 13.8651 27.8642 3.54532 35.0409C2.72892 35.6867 1.51633 36.317 1.26384 37.3816C0.99309 38.3389 1.48501 39.1288 2.07193 39.7241C10.3357 45.4912 18.2366 52.3377 25.269 60.1457C26.5174 61.4742 27.5293 62.7956 28.7505 64.0432C30.8074 66.8163 33.2235 69.6114 35.1144 72.5865C35.7074 73.2143 35.8091 74.2465 36.7363 74.5526C37.4621 74.8071 38.3582 74.9801 39.0508 74.5526L39.7393 73.8519C48.2899 61.58 59.134 50.5578 71.2501 41.659C72.4629 40.562 74.7795 40.1535 74.8126 38.1171C74.726 37.1775 74.1861 36.2517 73.3898 35.7384ZM65.1122 39.0215C63.7323 42.5162 60.9289 45.3019 58.4773 48.3538C53.1736 54.1377 47.579 59.7345 41.316 64.1989C40.0494 65.1067 38.3404 65.9451 36.8222 65.2246C32.212 62.7798 28.3246 58.7747 24.2896 55.1254C19.61 50.7292 14.914 45.6102 11.3671 40.2556C10.8397 39.5045 10.6913 38.5776 10.7065 37.5867C11.1624 35.7384 12.4125 34.2172 13.5951 32.6592C17.786 27.2476 22.9194 22.1149 28.1034 17.4263C28.2229 17.3063 28.4441 17.0509 28.632 16.9287C30.858 14.9782 33.0698 13.2519 35.4031 11.5553C37.834 9.63833 40.8928 11.2302 42.938 12.993C45.0802 14.6521 47.3117 16.5318 49.2697 18.453L49.626 18.6602C55.0493 23.7581 60.0861 29.4242 64.2235 35.4142C64.8944 36.4567 65.4871 37.6384 65.1122 39.0215ZM62.7668 35.9916C57.4123 28.1418 50.3848 21.1903 42.9381 15.117C41.012 13.7463 38.7817 11.3476 36.296 13.0635C28.5771 18.4675 21.1479 25.7968 15.1662 33.2712C13.9484 35.0869 11.8197 36.8162 12.7853 39.2274C13.477 41.0075 15.0304 42.2938 16.0249 43.8636C21.8912 51.0034 28.8116 57.6604 36.0435 63.015C39.2198 65.0716 41.4834 61.7516 43.9493 60.2315C49.0018 56.1874 53.6773 51.2789 58.1049 46.504V46.3855C59.8805 44.2111 61.7535 42.0701 63.1417 39.7242C63.747 38.5777 63.4419 37.0049 62.7668 35.9916ZM37.1918 20.1815L37.8659 17.9902H37.953C39.3371 22.0074 40.7725 26.0067 42.2589 29.9872L39.2863 30.0384L39.2196 30.4024L39.6611 41.1601V41.3348C38.5595 41.5249 37.2098 41.4703 36.1287 41.363L36.0433 41.2466L36.5376 30.1554V30.0742C35.7068 29.9869 34.6592 30.0742 33.8132 29.9869L37.192 20.1814L37.1918 20.1815ZM35.4371 55.9473C35.7248 51.999 35.7745 48.3538 35.9761 44.4152C37.3447 44.552 38.5273 44.5017 39.7764 44.452L39.8626 44.976L40.3529 55.983C38.712 56.2248 36.976 56.0893 35.4373 55.9473H35.4371ZM47.8887 42.2258C40.7928 44.4656 31.8703 44.3633 25.1492 41.3631C23.9332 40.7719 22.3966 39.843 21.9908 38.4051C21.6835 35.7719 24.4713 34.3171 26.3663 33.3545C27.4813 32.8621 28.6112 32.3139 29.8479 32.2445C30.9934 33.103 32.1947 33.7855 33.3759 34.557C31.0771 35.1755 28.3244 35.7057 27.2603 38.2516C27.446 40.186 29.6098 40.8004 31.1093 41.2791C36.5375 42.7381 42.3938 42.5509 47.5988 40.6319C48.5799 40.0483 50.1332 39.3474 49.9983 37.9096C49.8259 36.3713 48.088 35.6866 46.8741 35.208C46.1277 35.3109 45.4185 35.4814 44.7268 35.7056C44.3572 34.642 44.0374 33.5626 43.5939 32.5391C45.8959 33.1557 48.1906 33.7857 50.5671 34.2172V34.2656C50.0799 34.3172 49.5391 34.4868 49.0689 34.675V34.7602C50.4177 35.4482 52.2949 36.5793 52.3137 38.3758C51.9924 40.5503 49.6402 41.542 47.8887 42.2258Z" fill="url(#paint0_linear_65_84)"/>
<defs>
<linearGradient id="paint0_linear_65_84" x1="38" y1="1.18738" x2="38" y2="74.8123" gradientUnits="userSpaceOnUse">
<stop stop-color="white"/>
<stop offset="1" stop-color="white" stop-opacity="0"/>
</linearGradient>
</defs>
</svg>
