<svg width="127" height="61" viewBox="0 0 127 61" fill="none" xmlns="http://www.w3.org/2000/svg">
<path d="M4.26172 56.1544V13.9133V13.5372H15.0414V9.27551H0V60.1655H48.8844V9.40086H34.0938V13.2865H44.8734V56.1544H31.0855V36.6007L27.0745 33.5924V56.1544H4.26172Z" fill="white"/>
<path d="M40.6117 50.3886H36.35V32.0883L40.6117 34.8458V50.3886Z" fill="white"/>
<path d="M34.3445 28.8293L30.0827 31.0855V19.3031L34.3445 22.0607V28.8293Z" fill="white"/>
<path d="M26.0717 32.3389L21.81 34.5951V0L26.0717 2.75758V32.3389Z" fill="white"/>
<path d="M19.0524 52.8955H14.54V18.0496L19.0524 21.0579V52.8955Z" fill="white"/>
<path d="M12.5345 50.3886H8.27275V31.0855L12.5345 28.3279V50.3886Z" fill="white"/>
<path fill-rule="evenodd" clip-rule="evenodd" d="M57.8845 50.1379H65.1545L64.6531 37.1021C68.0792 36.935 75.533 34.9963 77.9396 28.5786C78.0168 28.2339 78.1352 27.8377 78.2651 27.4032C78.5251 26.5332 78.8308 25.5103 78.9424 24.4423C79.2274 21.7128 78.8876 18.689 77.9396 17.1723C77.104 14.4147 71.9732 9.4761 58.1351 11.7824L58.5112 30.8348L57.8845 50.1379ZM64.9038 15.7935L64.6531 33.091C67.4107 32.8403 72.8005 30.5841 72.2991 23.5648C72.4662 20.5983 71.2211 14.891 64.9038 15.7935Z" fill="white"/>
<path fill-rule="evenodd" clip-rule="evenodd" d="M104.763 49.3859C111.824 51.6421 126.072 50.9903 126.573 30.3335C126.949 22.6874 123.064 8.22264 104.513 11.5317L105.014 30.4588L104.763 49.3859ZM111.031 15.2921L111.281 45.8762C114.666 46.9207 119.303 44.8734 119.805 29.8321C120.055 22.3114 119.153 13.2866 111.031 15.2921Z" fill="white"/>
<path d="M101.003 17.799C101.003 20.4296 99.1212 22.4367 96.4906 22.4367C93.86 22.4367 92.2289 20.5549 92.2289 17.9243C92.1035 15.0414 93.86 13.2866 96.4906 13.2866C99.1212 13.2866 101.003 15.1684 101.003 17.799Z" fill="white"/>
<path d="M90.2234 40.1103C90.2234 42.7409 87.8419 43.8707 85.4603 44.8734C82.8297 44.8734 80.6972 42.7409 80.6972 40.1103C80.6972 37.4797 82.8297 35.3472 85.4603 35.3472C88.0909 35.3472 90.2234 37.4797 90.2234 40.1103Z" fill="white"/>
<path d="M95.1118 43.1186C93.6077 46.0015 89.0117 45.1659 87.5911 43.8707L80.9479 39.1076C80.0454 45.2244 84.9171 48.7173 87.5911 49.2605C96.3151 51.0654 99.3736 45.8762 100.627 43.1186C102.382 39.6089 101.128 35.2219 100.251 33.2164C99.4646 31.4189 95.9893 28.5368 93.733 27.1998C87.7165 23.991 86.4631 21.0579 86.8391 18.4257C88.1427 13.6124 91.644 14.4146 93.2317 15.4174L100.627 16.1695C99.1229 11.5568 93.5241 9.90223 90.9754 10.0276C84.5578 9.42592 81.5328 15.877 80.8225 19.1777C79.92 26.4979 87.2151 31.5869 90.9754 33.2164C95.7887 34.8208 95.9893 40.4863 95.1118 43.1186Z" fill="white"/>
</svg>
