<svg width="200" height="200" viewBox="0 0 200 200" fill="none" xmlns="http://www.w3.org/2000/svg">
<g clip-path="url(#clip0_49_97)">
<path d="M30.4997 108V89.2881C54.4269 91.7183 77.3078 100.51 96.7418 114.798L99.9997 117.193L103.258 114.798C122.692 100.51 145.572 91.7183 169.5 89.2881V108V113.489L174.989 113.5C177.958 113.506 180.804 114.691 182.9 116.794C184.996 118.898 186.171 121.747 186.166 124.717V124.725V133.092V133.1C186.171 136.069 184.996 138.919 182.9 141.022C180.804 143.126 177.958 144.311 174.989 144.317L169.5 144.328V149.817V163.162C148.23 165.386 127.813 172.85 110.095 184.921L110.075 184.935L110.056 184.948C106.58 187.36 103.225 189.937 99.9997 192.672C96.7748 189.937 93.4189 187.36 89.9436 184.948L89.9243 184.935L89.9047 184.921C72.1865 172.85 51.7697 165.385 30.4997 163.162V151.492V148.238L27.6534 146.674L27.6526 146.674L27.6517 146.673L27.6502 146.672L27.6484 146.671L27.6335 146.663C27.6217 146.657 27.6047 146.647 27.5828 146.635C27.5673 146.626 27.5493 146.616 27.5289 146.604C27.4305 146.548 27.2766 146.46 27.0752 146.341C26.6719 146.104 26.0813 145.747 25.3666 145.288C23.9264 144.363 22.035 143.06 20.1709 141.518C18.2804 139.955 16.5796 138.28 15.3922 136.64C14.1667 134.947 13.833 133.772 13.833 133.092L13.833 124.725L13.833 124.717C13.8286 121.747 15.0035 118.898 17.0996 116.794C19.1956 114.691 22.0412 113.506 25.0107 113.5L30.4997 113.489V108ZM96.7486 182.953L99.9997 185.336L103.251 182.953C119.857 170.783 139.029 162.577 159.298 158.965L163.833 158.156V153.55V102.292V95.5722L157.246 96.9001C140.357 100.305 124.323 107.063 110.091 116.774L110.073 116.786L110.056 116.798C106.58 119.21 103.225 121.787 99.9997 124.522C96.7748 121.787 93.4189 119.21 89.9436 116.798L89.9255 116.785L89.9073 116.773C75.6753 107.065 59.6408 100.311 42.7525 96.9083L36.1664 95.5815V102.3V153.55V158.156L40.7013 158.965C60.97 162.577 80.1424 170.783 96.7486 182.953Z" stroke="white" stroke-width="11"/>
<path d="M91.6668 83.3333H108.333V91.6667H91.6668V83.3333ZM75.0001 41.6667C77.2102 41.6667 79.3299 40.7887 80.8927 39.2259C82.4555 37.6631 83.3334 35.5435 83.3334 33.3333C83.3412 32.2478 83.1331 31.1715 82.7212 30.167C82.3094 29.1626 81.702 28.25 80.9344 27.4824C80.1667 26.7148 79.2542 26.1074 78.2497 25.6955C77.2453 25.2837 76.169 25.0756 75.0834 25.0833C73.9946 25.0779 72.9153 25.2869 71.9072 25.6986C70.8991 26.1102 69.982 26.7164 69.2081 27.4824C67.6453 29.0296 66.7612 31.1342 66.7501 33.3333C66.7391 35.5324 67.602 37.6458 69.1492 39.2086C70.6964 40.7714 72.801 41.6556 75.0001 41.6667Z" fill="white"/>
<path d="M125 41.6667C129.603 41.6667 133.334 37.9357 133.334 33.3333C133.334 28.731 129.603 25 125 25C120.398 25 116.667 28.731 116.667 33.3333C116.667 37.9357 120.398 41.6667 125 41.6667Z" fill="white"/>
<path d="M66.667 12.1667L66.6625 12.1667C63.2611 12.1701 60 13.5228 57.5949 15.9279C55.1898 18.333 53.8371 21.5941 53.8337 24.9955V25L53.8337 41.6667L53.8337 41.6712C53.8371 45.0725 55.1898 48.3336 57.5949 50.7388C60 53.1439 63.2611 54.4966 66.6625 54.5H66.667H133.334L133.338 54.5C136.74 54.4966 140.001 53.1439 142.406 50.7388C144.811 48.3336 146.164 45.0725 146.167 41.6712V41.6667V25L146.167 24.9955C146.164 21.5941 144.811 18.333 142.406 15.9279C140.001 13.5228 136.74 12.1701 133.338 12.1667H133.334L66.667 12.1667ZM133.329 62.1667H66.6715C66.6703 62.1667 66.6691 62.1667 66.668 62.1667C61.2328 62.1603 56.0219 59.9984 52.1786 56.155C48.335 52.3114 46.173 47.1001 46.167 41.6644V25.0022C46.173 19.5666 48.335 14.3552 52.1786 10.5116C56.0222 6.66799 61.2336 4.50603 66.6692 4.5H133.331C138.767 4.50603 143.978 6.66799 147.822 10.5116C151.666 14.3558 153.828 19.568 153.834 25.0045V41.6622C153.828 47.0986 151.666 52.3109 147.822 56.155C143.979 59.9984 138.768 62.1603 133.333 62.1667C133.332 62.1667 133.33 62.1667 133.329 62.1667Z" stroke="white" stroke-width="9"/>
</g>
<defs>
<clipPath id="clip0_49_97">
<rect width="200" height="200" fill="white"/>
</clipPath>
</defs>
</svg>
