<svg width="24" height="24" viewBox="0 0 24 24" fill="none" xmlns="http://www.w3.org/2000/svg">
<path d="M13.41 12.0068C13.41 15.4568 10.631 18.2538 7.205 18.2538C3.778 18.2538 1 15.4578 1 12.0068C1 8.55677 3.778 5.75977 7.205 5.75977C10.631 5.75977 13.41 8.55677 13.41 12.0068ZM20.215 12.0068C20.215 15.2548 18.825 17.8868 17.113 17.8868C15.399 17.8868 14.01 15.2538 14.01 12.0068C14.01 8.75977 15.4 6.12677 17.113 6.12677C18.826 6.12677 20.215 8.75977 20.215 12.0068ZM22.999 12.0068C22.999 14.9168 22.51 17.2758 21.908 17.2758C21.305 17.2758 20.817 14.9158 20.817 12.0068C20.817 9.09677 21.305 6.73777 21.908 6.73777C22.511 6.73777 23 9.09777 23 12.0078" fill="white"/>
<path d="M13.41 12.0068C13.41 15.4568 10.631 18.2538 7.205 18.2538C3.778 18.2538 1 15.4578 1 12.0068C1 8.55677 3.778 5.75977 7.205 5.75977C10.631 5.75977 13.41 8.55677 13.41 12.0068ZM20.215 12.0068C20.215 15.2548 18.825 17.8868 17.113 17.8868C15.399 17.8868 14.01 15.2538 14.01 12.0068C14.01 8.75977 15.4 6.12677 17.113 6.12677C18.826 6.12677 20.215 8.75977 20.215 12.0068ZM22.999 12.0068C22.999 14.9168 22.51 17.2758 21.908 17.2758C21.305 17.2758 20.817 14.9158 20.817 12.0068C20.817 9.09677 21.305 6.73777 21.908 6.73777C22.511 6.73777 23 9.09777 23 12.0078" fill="url(#paint0_linear_78_333)"/>
<defs>
<linearGradient id="paint0_linear_78_333" x1="12" y1="5.75977" x2="12" y2="18.2538" gradientUnits="userSpaceOnUse">
<stop stop-color="white"/>
<stop offset="1"/>
</linearGradient>
</defs>
</svg>
