<svg width="91" height="63" viewBox="0 0 91 63" fill="none" xmlns="http://www.w3.org/2000/svg">
<mask id="path-1-outside-1_1_40" maskUnits="userSpaceOnUse" x="0" y="5" width="89" height="50" fill="black">
<rect fill="white" y="5" width="89" height="50"/>
<path d="M5.016 9.688V13.284H22.706V9.688H5.016ZM5.016 16.358V50.752H8.438V53.826H2L1.826 6.44L22.706 6.498C24.8327 6.498 25.896 7.58066 25.896 9.746V13.168C25.896 15.3333 24.8327 16.416 22.706 16.416L5.016 16.358ZM29.1295 9.63C29.1295 7.50333 30.1542 6.44 32.2035 6.44L49.6615 6.498C51.6722 6.498 52.6968 7.58066 52.7355 9.746L52.7935 13.11H49.7195V9.688H32.2035V16.532L49.4875 16.59C51.6528 16.59 52.7355 17.6727 52.7355 19.838V50.81C52.7355 52.8593 51.7882 53.884 49.8935 53.884H32.2035C30.0382 53.884 28.9555 52.8593 28.9555 50.81C28.9555 45.7833 28.9748 41.5687 29.0135 38.166C29.0908 30.8967 29.1488 27.1073 29.1875 26.798H32.2035V50.752H49.7195V19.78C47.6702 19.7413 44.9635 19.7027 41.5995 19.664H32.2035C30.1542 19.664 29.1295 18.6393 29.1295 16.59V9.63ZM56.375 6.44H78.241C79.9037 6.44 81.5277 7.05866 83.113 8.296C84.5823 9.456 85.665 10.8287 86.361 12.414C87.057 14.154 87.405 15.894 87.405 17.634C87.405 19.49 87.2117 21.288 86.825 23.028L69.715 53.826H56.375V50.752H59.797V9.688H56.375V6.44ZM83.577 22.448C83.9637 20.9787 84.157 19.4707 84.157 17.924C84.157 15.024 83.0357 12.7233 80.793 11.022C79.633 10.1327 78.3957 9.688 77.081 9.688H62.813V50.752H68.149L83.577 22.448Z"/>
</mask>
<path d="M5.016 9.688V13.284H22.706V9.688H5.016ZM5.016 16.358V50.752H8.438V53.826H2L1.826 6.44L22.706 6.498C24.8327 6.498 25.896 7.58066 25.896 9.746V13.168C25.896 15.3333 24.8327 16.416 22.706 16.416L5.016 16.358ZM29.1295 9.63C29.1295 7.50333 30.1542 6.44 32.2035 6.44L49.6615 6.498C51.6722 6.498 52.6968 7.58066 52.7355 9.746L52.7935 13.11H49.7195V9.688H32.2035V16.532L49.4875 16.59C51.6528 16.59 52.7355 17.6727 52.7355 19.838V50.81C52.7355 52.8593 51.7882 53.884 49.8935 53.884H32.2035C30.0382 53.884 28.9555 52.8593 28.9555 50.81C28.9555 45.7833 28.9748 41.5687 29.0135 38.166C29.0908 30.8967 29.1488 27.1073 29.1875 26.798H32.2035V50.752H49.7195V19.78C47.6702 19.7413 44.9635 19.7027 41.5995 19.664H32.2035C30.1542 19.664 29.1295 18.6393 29.1295 16.59V9.63ZM56.375 6.44H78.241C79.9037 6.44 81.5277 7.05866 83.113 8.296C84.5823 9.456 85.665 10.8287 86.361 12.414C87.057 14.154 87.405 15.894 87.405 17.634C87.405 19.49 87.2117 21.288 86.825 23.028L69.715 53.826H56.375V50.752H59.797V9.688H56.375V6.44ZM83.577 22.448C83.9637 20.9787 84.157 19.4707 84.157 17.924C84.157 15.024 83.0357 12.7233 80.793 11.022C79.633 10.1327 78.3957 9.688 77.081 9.688H62.813V50.752H68.149L83.577 22.448Z" fill="white"/>
<path d="M5.016 9.688V8.688H4.016V9.688H5.016ZM5.016 13.284H4.016V14.284H5.016V13.284ZM22.706 13.284V14.284H23.706V13.284H22.706ZM22.706 9.688H23.706V8.688H22.706V9.688ZM5.016 16.358L5.01928 15.358L4.016 15.3547V16.358H5.016ZM5.016 50.752H4.016V51.752H5.016V50.752ZM8.438 50.752H9.438V49.752H8.438V50.752ZM8.438 53.826V54.826H9.438V53.826H8.438ZM2 53.826L1.00001 53.8297L1.00367 54.826H2V53.826ZM1.826 6.44L1.82878 5.44L0.822311 5.43721L0.826007 6.44367L1.826 6.44ZM22.706 6.498L22.7032 7.498H22.706V6.498ZM22.706 16.416L22.7027 17.416H22.706V16.416ZM5.016 9.688H4.016V13.284H5.016H6.016V9.688H5.016ZM5.016 13.284V14.284H22.706V13.284V12.284H5.016V13.284ZM22.706 13.284H23.706V9.688H22.706H21.706V13.284H22.706ZM22.706 9.688V8.688H5.016V9.688V10.688H22.706V9.688ZM5.016 16.358H4.016V50.752H5.016H6.016V16.358H5.016ZM5.016 50.752V51.752H8.438V50.752V49.752H5.016V50.752ZM8.438 50.752H7.438V53.826H8.438H9.438V50.752H8.438ZM8.438 53.826V52.826H2V53.826V54.826H8.438V53.826ZM2 53.826L2.99999 53.8223L2.82599 6.43633L1.826 6.44L0.826007 6.44367L1.00001 53.8297L2 53.826ZM1.826 6.44L1.82322 7.43999L22.7032 7.49799L22.706 6.498L22.7088 5.498L1.82878 5.44L1.826 6.44ZM22.706 6.498V7.498C23.6106 7.498 24.1064 7.72695 24.3851 8.0107C24.667 8.29778 24.896 8.81299 24.896 9.746H25.896H26.896C26.896 8.51367 26.5933 7.40488 25.812 6.60929C25.0273 5.81037 23.9281 5.498 22.706 5.498V6.498ZM25.896 9.746H24.896V13.168H25.896H26.896V9.746H25.896ZM25.896 13.168H24.896C24.896 14.101 24.667 14.6162 24.3851 14.9033C24.1064 15.187 23.6106 15.416 22.706 15.416V16.416V17.416C23.9281 17.416 25.0273 17.1036 25.812 16.3047C26.5933 15.5091 26.896 14.4003 26.896 13.168H25.896ZM22.706 16.416L22.7093 15.416L5.01928 15.358L5.016 16.358L5.01272 17.358L22.7027 17.416L22.706 16.416ZM32.2035 6.44L32.2068 5.44H32.2035V6.44ZM49.6615 6.498L49.6582 7.498H49.6615V6.498ZM52.7355 9.746L53.7354 9.72876L53.7353 9.72815L52.7355 9.746ZM52.7935 13.11V14.11H53.8109L53.7934 13.0928L52.7935 13.11ZM49.7195 13.11H48.7195V14.11H49.7195V13.11ZM49.7195 9.688H50.7195V8.688H49.7195V9.688ZM32.2035 9.688V8.688H31.2035V9.688H32.2035ZM32.2035 16.532H31.2035V17.5286L32.2001 17.532L32.2035 16.532ZM49.4875 16.59L49.4841 17.59H49.4875V16.59ZM29.0135 38.166L30.0134 38.1774L30.0134 38.1766L29.0135 38.166ZM29.1875 26.798V25.798H28.3047L28.1952 26.674L29.1875 26.798ZM32.2035 26.798H33.2035V25.798H32.2035V26.798ZM32.2035 50.752H31.2035V51.752H32.2035V50.752ZM49.7195 50.752V51.752H50.7195V50.752H49.7195ZM49.7195 19.78H50.7195V18.7987L49.7384 18.7802L49.7195 19.78ZM41.5995 19.664L41.611 18.664H41.5995V19.664ZM29.1295 9.63H30.1295C30.1295 8.71173 30.3512 8.20833 30.6181 7.93139C30.8783 7.66135 31.3426 7.44 32.2035 7.44V6.44V5.44C31.0151 5.44 29.9424 5.75031 29.1779 6.5436C28.4201 7.33 28.1295 8.4216 28.1295 9.63H29.1295ZM32.2035 6.44L32.2002 7.43999L49.6582 7.49799L49.6615 6.498L49.6648 5.498L32.2068 5.44L32.2035 6.44ZM49.6615 6.498V7.498C50.4915 7.498 50.9472 7.71788 51.2117 7.99738C51.4888 8.29014 51.7188 8.81913 51.7357 9.76385L52.7355 9.746L53.7353 9.72815C53.7135 8.50753 53.4119 7.41253 52.6643 6.62261C51.9042 5.81945 50.8421 5.498 49.6615 5.498V6.498ZM52.7355 9.746L51.7356 9.76324L51.7936 13.1272L52.7935 13.11L53.7934 13.0928L53.7354 9.72876L52.7355 9.746ZM52.7935 13.11V12.11H49.7195V13.11V14.11H52.7935V13.11ZM49.7195 13.11H50.7195V9.688H49.7195H48.7195V13.11H49.7195ZM49.7195 9.688V8.688H32.2035V9.688V10.688H49.7195V9.688ZM32.2035 9.688H31.2035V16.532H32.2035H33.2035V9.688H32.2035ZM32.2035 16.532L32.2001 17.532L49.4841 17.59L49.4875 16.59L49.4909 15.59L32.2069 15.532L32.2035 16.532ZM49.4875 16.59V17.59C50.416 17.59 50.9287 17.8215 51.2164 18.1091C51.504 18.3968 51.7355 18.9095 51.7355 19.838H52.7355H53.7355C53.7355 18.6012 53.4256 17.4899 52.6306 16.6949C51.8356 15.8999 50.7243 15.59 49.4875 15.59V16.59ZM52.7355 19.838H51.7355V50.81H52.7355H53.7355V19.838H52.7355ZM52.7355 50.81H51.7355C51.7355 51.6992 51.5284 52.1796 51.2907 52.4366C51.0668 52.6789 50.6657 52.884 49.8935 52.884V53.884V54.884C51.016 54.884 52.0359 54.5768 52.7593 53.7944C53.469 53.0267 53.7355 51.9702 53.7355 50.81H52.7355ZM49.8935 53.884V52.884H32.2035V53.884V54.884H49.8935V53.884ZM32.2035 53.884V52.884C31.2617 52.884 30.7412 52.6601 30.4549 52.3892C30.1789 52.128 29.9555 51.666 29.9555 50.81H28.9555H27.9555C27.9555 52.0033 28.2734 53.0783 29.0801 53.8418C29.8765 54.5955 30.98 54.884 32.2035 54.884V53.884ZM28.9555 50.81H29.9555C29.9555 45.7855 29.9748 41.5749 30.0134 38.1774L29.0135 38.166L28.0136 38.1546C27.9748 41.5624 27.9555 45.7811 27.9555 50.81H28.9555ZM29.0135 38.166L30.0134 38.1766C30.0521 34.5424 30.0859 31.7796 30.1149 29.8873C30.1294 28.9408 30.1426 28.2143 30.1546 27.7061C30.1606 27.4516 30.1662 27.2549 30.1714 27.114C30.1774 26.9519 30.1816 26.9078 30.1798 26.922L29.1875 26.798L28.1952 26.674C28.1775 26.8157 28.1664 27.1807 28.1552 27.6589C28.143 28.1754 28.1296 28.9085 28.1151 29.8567C28.0861 31.7537 28.0522 34.5203 28.0136 38.1554L29.0135 38.166ZM29.1875 26.798V27.798H32.2035V26.798V25.798H29.1875V26.798ZM32.2035 26.798H31.2035V50.752H32.2035H33.2035V26.798H32.2035ZM32.2035 50.752V51.752H49.7195V50.752V49.752H32.2035V50.752ZM49.7195 50.752H50.7195V19.78H49.7195H48.7195V50.752H49.7195ZM49.7195 19.78L49.7384 18.7802C47.6855 18.7414 44.9761 18.7027 41.611 18.6641L41.5995 19.664L41.588 20.6639C44.9509 20.7026 47.6548 20.7412 49.7006 20.7798L49.7195 19.78ZM41.5995 19.664V18.664H32.2035V19.664V20.664H41.5995V19.664ZM32.2035 19.664V18.664C31.333 18.664 30.8638 18.447 30.6051 18.1884C30.3465 17.9297 30.1295 17.4605 30.1295 16.59H29.1295H28.1295C28.1295 17.7688 28.4249 18.8366 29.1909 19.6026C29.9569 20.3686 31.0247 20.664 32.2035 20.664V19.664ZM29.1295 16.59H30.1295V9.63H29.1295H28.1295V16.59H29.1295ZM56.375 6.44V5.44H55.375V6.44H56.375ZM83.113 8.296L83.7327 7.5111L83.7283 7.50768L83.113 8.296ZM86.361 12.414L87.2895 12.0426L87.2833 12.0272L87.2766 12.012L86.361 12.414ZM86.825 23.028L87.6992 23.5136L87.7697 23.3867L87.8012 23.2449L86.825 23.028ZM69.715 53.826V54.826H70.3034L70.5892 54.3116L69.715 53.826ZM56.375 53.826H55.375V54.826H56.375V53.826ZM56.375 50.752V49.752H55.375V50.752H56.375ZM59.797 50.752V51.752H60.797V50.752H59.797ZM59.797 9.688H60.797V8.688H59.797V9.688ZM56.375 9.688H55.375V10.688H56.375V9.688ZM83.577 22.448L84.455 22.9266L84.5132 22.82L84.5441 22.7025L83.577 22.448ZM80.793 11.022L80.1846 11.8156L80.1886 11.8187L80.793 11.022ZM62.813 9.688V8.688H61.813V9.688H62.813ZM62.813 50.752H61.813V51.752H62.813V50.752ZM68.149 50.752V51.752H68.7428L69.027 51.2306L68.149 50.752ZM56.375 6.44V7.44H78.241V6.44V5.44H56.375V6.44ZM78.241 6.44V7.44C79.6369 7.44 81.0502 7.95453 82.4977 9.08431L83.113 8.296L83.7283 7.50768C82.0051 6.1628 80.1704 5.44 78.241 5.44V6.44ZM83.113 8.296L82.4934 9.08088C83.8449 10.1479 84.8205 11.3926 85.4454 12.816L86.361 12.414L87.2766 12.012C86.5095 10.2647 85.3198 8.76414 83.7326 7.51112L83.113 8.296ZM86.361 12.414L85.4325 12.7854C86.0849 14.4164 86.405 16.0307 86.405 17.634H87.405H88.405C88.405 15.7573 88.0291 13.8916 87.2895 12.0426L86.361 12.414ZM87.405 17.634H86.405C86.405 19.42 86.219 21.1452 85.8488 22.8111L86.825 23.028L87.8012 23.2449C88.2043 21.4308 88.405 19.56 88.405 17.634H87.405ZM86.825 23.028L85.9508 22.5424L68.8408 53.3404L69.715 53.826L70.5892 54.3116L87.6992 23.5136L86.825 23.028ZM69.715 53.826V52.826H56.375V53.826V54.826H69.715V53.826ZM56.375 53.826H57.375V50.752H56.375H55.375V53.826H56.375ZM56.375 50.752V51.752H59.797V50.752V49.752H56.375V50.752ZM59.797 50.752H60.797V9.688H59.797H58.797V50.752H59.797ZM59.797 9.688V8.688H56.375V9.688V10.688H59.797V9.688ZM56.375 9.688H57.375V6.44H56.375H55.375V9.688H56.375ZM83.577 22.448L84.5441 22.7025C84.953 21.1486 85.157 19.555 85.157 17.924H84.157H83.157C83.157 19.3863 82.9743 20.8087 82.6099 22.1935L83.577 22.448ZM84.157 17.924H85.157C85.157 14.7223 83.898 12.1223 81.3974 10.2253L80.793 11.022L80.1886 11.8187C82.1734 13.3244 83.157 15.3257 83.157 17.924H84.157ZM80.793 11.022L81.4014 10.2284C80.0874 9.221 78.6403 8.688 77.081 8.688V9.688V10.688C78.1511 10.688 79.1786 11.0443 80.1846 11.8156L80.793 11.022ZM77.081 9.688V8.688H62.813V9.688V10.688H77.081V9.688ZM62.813 9.688H61.813V50.752H62.813H63.813V9.688H62.813ZM62.813 50.752V51.752H68.149V50.752V49.752H62.813V50.752ZM68.149 50.752L69.027 51.2306L84.455 22.9266L83.577 22.448L82.699 21.9694L67.271 50.2734L68.149 50.752Z" fill="white" mask="url(#path-1-outside-1_1_40)"/>
</svg>
