<svg width="155" height="135" viewBox="0 0 155 135" fill="none" xmlns="http://www.w3.org/2000/svg">
<rect width="154" height="135" rx="4" fill="url(#paint0_linear_21_298)"/>
<path d="M109.22 51.8107C108.156 51.4459 107.082 51.1079 106.001 50.7972C106.183 50.0557 106.35 49.3231 106.498 48.6035C108.935 36.786 107.342 27.2655 101.901 24.1309C96.6844 21.1259 88.1527 24.2593 79.5363 31.7512C78.6871 32.4909 77.8568 33.2519 77.0461 34.0334C76.5034 33.5137 75.9511 33.0041 75.3895 32.5048C66.359 24.4942 57.3074 21.1181 51.8723 24.2617C46.6602 27.276 45.1168 36.2259 47.3105 47.4257C47.5288 48.5349 47.7752 49.6384 48.0496 50.7351C46.7684 51.0988 45.532 51.486 44.3488 51.8981C33.7613 55.5861 27 61.3655 27 67.3603C27 73.5518 34.2586 79.7621 45.2859 83.5277C46.1799 83.8318 47.0814 84.1135 47.9895 84.3726C47.6945 85.5538 47.4327 86.743 47.2043 87.9389C45.1129 98.9443 46.7461 107.683 51.9441 110.678C57.3129 113.771 66.3238 110.592 75.0977 102.929C75.8091 102.306 76.5049 101.666 77.1844 101.008C78.0623 101.854 78.9637 102.676 79.8875 103.472C88.3867 110.779 96.7805 113.729 101.973 110.726C107.337 107.623 109.08 98.2359 106.817 86.8149C106.639 85.9201 106.439 85.0298 106.218 84.1447C106.85 83.9574 107.471 83.7646 108.077 83.564C119.541 79.7695 127 73.6346 127 67.3603C127 61.3436 120.02 55.5252 109.22 51.8107ZM106.734 79.5131C106.187 79.6938 105.626 79.8682 105.054 80.038C103.788 76.0351 102.08 71.7789 99.9902 67.381C101.985 63.0881 103.627 58.8861 104.857 54.9094C105.88 55.2052 106.873 55.517 107.83 55.846C117.084 59.029 122.728 63.7344 122.728 67.3603C122.728 71.2223 116.632 76.2361 106.734 79.5131ZM102.627 87.6438C103.627 92.6938 103.77 97.2599 103.107 100.83C102.512 104.037 101.314 106.175 99.8328 107.032C96.6816 108.855 89.9422 106.486 82.6738 100.237C81.8146 99.4966 80.9761 98.7327 80.1594 97.946C82.9773 94.8672 85.7934 91.2881 88.5418 87.3129C93.3762 86.8844 97.9434 86.1835 102.085 85.2269C102.285 86.0282 102.465 86.834 102.627 87.6438ZM61.0922 106.717C58.0133 107.803 55.5609 107.834 54.0785 106.981C50.9242 105.163 49.6129 98.1466 51.4016 88.735C51.6142 87.6228 51.8576 86.5168 52.1316 85.4181C56.2277 86.3236 60.7617 86.9745 65.6074 87.3671C68.3746 91.2569 71.2719 94.8321 74.1918 97.9628C73.5713 98.5626 72.9361 99.1472 72.2867 99.7158C68.4066 103.104 64.5188 105.508 61.0922 106.717ZM46.668 79.4893C41.7918 77.824 37.7648 75.66 35.0047 73.2985C32.5242 71.1767 31.2723 69.0697 31.2723 67.3603C31.2723 63.7223 36.7008 59.0821 45.7551 55.9283C46.8539 55.5459 48.0039 55.1849 49.1973 54.8461C50.4488 58.9127 52.0902 63.1646 54.0711 67.4641C52.0645 71.8273 50.3996 76.1471 49.1359 80.2616C48.3071 80.0244 47.4842 79.7669 46.668 79.4893ZM51.5031 46.6057C49.6238 37.0104 50.8719 29.7722 54.0129 27.9555C57.3582 26.0206 64.7559 28.7793 72.5531 35.6963C73.0616 36.1484 73.5618 36.6097 74.0535 37.0798C71.148 40.1969 68.2773 43.7455 65.5348 47.6122C60.8316 48.0478 56.3297 48.7471 52.1906 49.6841C51.9356 48.6641 51.7064 47.6374 51.5031 46.6057ZM94.6387 57.2478C93.661 55.5607 92.6471 53.8948 91.5977 52.2513C94.7883 52.6544 97.8453 53.1895 100.716 53.8436C99.8543 56.6035 98.7801 59.4887 97.5156 62.4469C96.5914 60.6949 95.6322 58.9615 94.6387 57.2478ZM77.048 40.1305C79.0184 42.2633 80.9918 44.6443 82.9328 47.2278C78.9953 47.042 75.0513 47.0413 71.1137 47.2255C73.0566 44.6658 75.0469 42.2879 77.048 40.1305ZM59.3445 57.2767C58.3634 58.9766 57.4221 60.6992 56.5215 62.443C55.2777 59.4953 54.2133 56.5969 53.3441 53.7979C56.1973 53.1602 59.2398 52.6388 62.4102 52.2431C61.349 53.8966 60.3268 55.5752 59.3445 57.2767ZM62.5012 82.7812C59.2258 82.4159 56.1375 81.9214 53.2852 81.3009C54.168 78.452 55.2559 75.4918 56.5266 72.4809C57.4308 74.226 58.376 75.9497 59.3613 77.6504C60.3746 79.3987 61.4238 81.1112 62.5012 82.7812ZM77.166 94.891C75.141 92.7086 73.1215 90.2941 71.1492 87.6973C73.0641 87.7722 75.016 87.8105 77 87.8105C79.0383 87.8105 81.0531 87.7648 83.0363 87.6766C81.0891 90.3202 79.1231 92.7383 77.166 94.891ZM97.5559 72.3272C98.8926 75.3712 100.019 78.3158 100.914 81.1159C98.0145 81.777 94.884 82.3093 91.5856 82.7047C92.6425 81.0306 93.666 79.3358 94.6555 77.6211C95.6615 75.8782 96.6285 74.1131 97.5559 72.3272ZM90.9551 75.4887C89.4403 78.1177 87.8404 80.6967 86.1578 83.2218C83.11 83.4374 80.0555 83.5445 77 83.5429C73.8879 83.5429 70.8609 83.4462 67.9461 83.2573C66.2196 80.738 64.5892 78.1545 63.0582 75.5121C61.5345 72.8837 60.1116 70.1985 58.7918 67.4622C60.1082 64.7252 61.5272 62.0387 63.0457 59.4083C64.5637 56.7773 66.1807 54.2051 67.8941 51.6967C70.868 51.4719 73.9176 51.3549 76.9996 51.3549C80.0957 51.3549 83.1496 51.4731 86.1227 51.6995C87.8188 54.2041 89.4259 56.7678 90.941 59.3857C92.4646 62.0103 93.9024 64.6837 95.252 67.4017C93.9162 70.1475 92.483 72.8448 90.9551 75.4887ZM99.7676 27.8283C103.116 29.7577 104.418 37.5384 102.314 47.7418C102.18 48.3928 102.029 49.0558 101.865 49.7282C97.716 48.7713 93.2109 48.0599 88.4941 47.6177C85.7465 43.7084 82.8992 40.1543 80.041 37.0775C80.7901 36.3561 81.557 35.6534 82.341 34.9701C89.7238 28.5514 96.6238 26.0171 99.7676 27.8283ZM77 58.4389C81.9316 58.4389 85.9297 62.4332 85.9297 67.3603C85.9297 72.2874 81.9316 76.2817 77 76.2817C72.0684 76.2817 68.0703 72.2874 68.0703 67.3603C68.0703 62.4332 72.0684 58.4389 77 58.4389Z" fill="url(#paint1_linear_21_298)"/>
<defs>
<linearGradient id="paint0_linear_21_298" x1="77.1795" y1="-30.0457" x2="77.1795" y2="173.277" gradientUnits="userSpaceOnUse">
<stop stop-color="white" stop-opacity="0.13"/>
<stop offset="1"/>
</linearGradient>
<linearGradient id="paint1_linear_21_298" x1="77" y1="23" x2="77" y2="131.333" gradientUnits="userSpaceOnUse">
<stop stop-color="#00D8FF"/>
<stop offset="1" stop-opacity="0"/>
</linearGradient>
</defs>
</svg>
