<svg width="155" height="135" viewBox="0 0 155 135" fill="none" xmlns="http://www.w3.org/2000/svg">
<rect width="154" height="135" rx="4" fill="url(#paint0_linear_17_68)"/>
<path d="M117.625 49.975C117.655 48.6127 117.311 47.2682 116.631 46.0875C115.918 44.9282 114.908 43.9801 113.706 43.3406C102.885 37.3656 92.0593 31.3938 81.228 25.425C79.9221 24.6394 78.4242 24.2305 76.9002 24.2438C75.3763 24.257 73.8857 24.6918 72.5936 25.5C68.2874 27.9344 46.7343 39.7656 40.3093 43.3313C39.0866 43.9454 38.0659 44.8976 37.3685 46.0748C36.6711 47.2519 36.3262 48.6045 36.3749 49.9719V86.0313C36.3433 87.3628 36.6669 88.6787 37.3124 89.8438C38.0301 91.0364 39.0613 92.0092 40.2936 92.6562C46.7186 96.2219 68.2749 108.053 72.5811 110.488C73.8726 111.297 75.3629 111.733 76.8869 111.747C78.4108 111.761 79.909 111.353 81.2155 110.569C92.028 104.588 102.847 98.6156 113.672 92.6531C114.904 92.0052 115.936 91.0327 116.656 89.8406C117.302 88.6756 117.625 87.3597 117.594 86.0281V49.975" fill="url(#paint1_linear_17_68)"/>
<path d="M88.25 74.3125C86.858 76.7881 84.6866 78.7341 82.0738 79.8476C79.461 80.9611 76.5534 81.1796 73.8036 80.4692C71.0537 79.7588 68.6158 78.1592 66.8694 75.9195C65.1229 73.6798 64.1658 70.9256 64.147 68.0855C64.1283 65.2454 65.0489 62.4788 66.7656 60.2162C68.4824 57.9537 70.8989 56.3221 73.6391 55.5754C76.3794 54.8287 79.2896 55.0088 81.9168 56.0876C84.5441 57.1665 86.741 59.0836 88.1656 61.5406L99.4625 55.0625C96.5951 50.1415 92.1892 46.2999 86.9236 44.1293C81.658 41.9587 75.8248 41.5796 70.3225 43.0503C64.8202 44.5211 59.9542 47.7602 56.4739 52.2686C52.9936 56.777 51.0922 62.3046 51.0625 68C51.0569 72.5162 52.2426 76.9541 54.5 80.8656C56.7859 84.8165 60.0718 88.0958 64.0272 90.3739C67.9826 92.652 72.468 93.8485 77.0325 93.8431C81.5971 93.8377 86.0797 92.6307 90.0297 90.3432C93.9797 88.0558 97.2578 84.7687 99.5344 80.8125L88.25 74.3125Z" fill="white"/>
<path d="M102.237 66.5562H99.3437V63.6781H96.4531V66.5562H93.5593V69.4406H96.4531V72.3156H99.3437V69.4406H102.237V66.5562ZM113.091 66.5562H110.197V63.6781H107.303V66.5562H104.409V69.4406H107.303V72.3156H110.197V69.4406H113.091V66.5562Z" fill="white"/>
<defs>
<linearGradient id="paint0_linear_17_68" x1="77.1795" y1="-30.0457" x2="77.1795" y2="173.277" gradientUnits="userSpaceOnUse">
<stop/>
<stop offset="1" stop-color="white" stop-opacity="0.13"/>
</linearGradient>
<linearGradient id="paint1_linear_17_68" x1="76.9985" y1="24.2435" x2="76.9985" y2="111.747" gradientUnits="userSpaceOnUse">
<stop stop-color="#838383"/>
<stop offset="1"/>
</linearGradient>
</defs>
</svg>
