<svg width="155" height="135" viewBox="0 0 155 135" fill="none" xmlns="http://www.w3.org/2000/svg">
<rect width="154" height="135" rx="4" fill="url(#paint0_linear_5_196)"/>
<path d="M66.9376 66.7167H84.971C84.971 66.7167 95.1043 66.8792 95.1043 56.925V40.4625C95.1043 40.4625 96.6418 30.5 76.7334 30.5C57.6751 30.5 58.8626 38.7625 58.8626 38.7625L58.8876 47.325H77.0668V49.8958H51.6668C51.6668 49.8958 39.4709 48.5125 39.4709 67.7375C39.4709 86.9625 50.1168 86.2792 50.1168 86.2792H56.4668V77.3583C56.4668 77.3583 56.1209 66.7167 66.9376 66.7167ZM66.7043 42.8C65.8368 42.8 65.0049 42.4554 64.3915 41.842C63.7781 41.2286 63.4335 40.3966 63.4335 39.5292C63.4335 38.6617 63.7781 37.8297 64.3915 37.2163C65.0049 36.6029 65.8368 36.2583 66.7043 36.2583C67.5718 36.2583 68.4037 36.6029 69.0171 37.2163C69.6305 37.8297 69.9751 38.6617 69.9751 39.5292C69.9751 40.3966 69.6305 41.2286 69.0171 41.842C68.4037 42.4554 67.5718 42.8 66.7043 42.8Z" fill="url(#paint1_linear_5_196)"/>
<path d="M103.883 49.3833H97.5334V58.3042C97.5334 58.3042 97.8793 68.9458 87.0626 68.9458H69.0293C69.0293 68.9458 58.8959 68.7792 58.8959 78.7375V95.2C58.8959 95.2 57.3584 105.162 77.2668 105.162C96.3209 105.162 95.1334 96.9 95.1334 96.9L95.1084 88.3417H76.9293V85.7708H102.333C102.333 85.7708 114.529 87.1542 114.529 67.9292C114.529 48.7042 103.883 49.3833 103.883 49.3833ZM87.2959 92.8667C88.1634 92.8667 88.9954 93.2113 89.6088 93.8247C90.2222 94.4381 90.5668 95.27 90.5668 96.1375C90.5668 97.005 90.2222 97.8369 89.6088 98.4503C88.9954 99.0637 88.1634 99.4083 87.2959 99.4083C86.4285 99.4083 85.5965 99.0637 84.9831 98.4503C84.3697 97.8369 84.0251 97.005 84.0251 96.1375C84.0251 95.27 84.3697 94.4381 84.9831 93.8247C85.5965 93.2113 86.4285 92.8667 87.2959 92.8667Z" fill="url(#paint2_linear_5_196)"/>
<defs>
<linearGradient id="paint0_linear_5_196" x1="77.1795" y1="-30.0457" x2="77.1795" y2="173.277" gradientUnits="userSpaceOnUse">
<stop/>
<stop offset="1" stop-color="white" stop-opacity="0.13"/>
</linearGradient>
<linearGradient id="paint1_linear_5_196" x1="67.3014" y1="30.5" x2="67.3014" y2="123.851" gradientUnits="userSpaceOnUse">
<stop/>
<stop offset="1" stop-opacity="0"/>
</linearGradient>
<linearGradient id="paint2_linear_5_196" x1="86.6988" y1="19.0638" x2="86.6988" y2="105.162" gradientUnits="userSpaceOnUse">
<stop stop-opacity="0"/>
<stop offset="1" stop-color="white"/>
</linearGradient>
</defs>
</svg>
