<svg width="155" height="135" viewBox="0 0 155 135" fill="none" xmlns="http://www.w3.org/2000/svg">
<rect width="154" height="135" rx="4" fill="url(#paint0_linear_17_49)"/>
<path d="M63.8845 95.3281C63.8845 95.3281 60.0595 97.5563 66.6001 98.3031C74.5251 99.2156 78.5782 99.0875 87.3032 97.425C87.3032 97.425 89.5939 98.875 92.8032 100.128C73.2251 108.513 48.5001 99.625 63.8814 95.3281H63.8845ZM61.4876 84.3906C61.4876 84.3906 57.1907 87.5625 63.7345 88.2281C72.2189 89.1062 78.8876 89.1906 90.4595 86.9625C90.4595 86.9625 92.0564 88.575 94.5814 89.4656C70.9157 96.3812 44.5439 90.0031 61.4876 84.3906ZM81.6532 65.8219C86.4689 71.3719 80.3814 76.3687 80.3814 76.3687C80.3814 76.3687 92.622 70.0344 87.0064 62.1281C81.7532 54.7375 77.7157 51.0781 99.522 38.4281C99.522 38.4281 65.2939 46.975 81.6501 65.825L81.6532 65.8219ZM107.534 103.434C107.534 103.434 110.369 105.759 104.425 107.569C93.1282 110.984 57.4032 112.009 47.4751 107.697C43.9126 106.15 50.6001 103.988 52.7001 103.547C54.897 103.059 56.1501 103.159 56.1501 103.159C52.1782 100.359 30.5001 108.644 45.1345 111.019C85.0595 117.497 117.9 108.106 107.534 103.434ZM65.722 73.0469C65.722 73.0469 47.5439 77.3594 59.2751 78.9219C64.2407 79.5875 74.122 79.4438 83.3345 78.6625C90.8501 78.025 98.4064 76.675 98.4064 76.675C98.4064 76.675 95.7532 77.8125 93.8314 79.1344C75.372 83.9844 39.7157 81.7219 49.9845 76.7594C58.6595 72.575 65.722 73.0469 65.722 73.0469ZM98.322 91.275C117.072 81.5094 108.397 72.15 102.359 73.4219C100.875 73.7125 100.209 73.9937 100.209 73.9937C100.209 73.9937 100.747 73.1281 101.806 72.7562C113.784 68.5406 122.997 85.1719 97.947 91.7656C97.947 91.75 98.2439 91.5031 98.322 91.275ZM87.0095 18C87.0095 18 97.397 28.3844 77.147 44.3656C60.922 57.1906 73.4501 64.5 77.147 72.85C67.6751 64.3031 60.7251 56.7875 65.3814 49.7875C72.2314 39.4844 91.1939 34.5031 87.0095 18ZM67.5595 117.691C85.5626 118.828 113.213 117.041 113.884 108.528C113.884 108.528 112.613 111.75 98.9876 114.319C83.6251 117.216 64.6626 116.872 53.4157 115.019C53.4157 115.019 55.7282 116.922 67.5564 117.691H67.5595Z" fill="url(#paint1_linear_17_49)"/>
<defs>
<linearGradient id="paint0_linear_17_49" x1="77.1795" y1="-30.0457" x2="77.1795" y2="173.277" gradientUnits="userSpaceOnUse">
<stop/>
<stop offset="1" stop-color="white" stop-opacity="0.13"/>
</linearGradient>
<linearGradient id="paint1_linear_17_49" x1="77" y1="78.1064" x2="77.0035" y2="117.999" gradientUnits="userSpaceOnUse">
<stop/>
<stop offset="1" stop-color="#696969" stop-opacity="0.28"/>
</linearGradient>
</defs>
</svg>
