<svg width="155" height="135" viewBox="0 0 155 135" fill="none" xmlns="http://www.w3.org/2000/svg">
<rect width="154" height="135" rx="4" fill="url(#paint0_linear_21_465)"/>
<path d="M78.9376 111.75L76.5907 110.972C76.5907 110.972 76.9032 99.0968 72.6063 98.2624C69.7938 94.9874 73.0219 -41.5532 83.3032 97.7968C81.3525 98.7863 79.8599 100.492 79.1376 102.556C78.7504 105.605 78.6834 108.687 78.9376 111.75Z" fill="url(#paint1_linear_21_465)"/>
<path d="M80.2062 100.278C86.4549 95.5742 91.2403 89.1935 94.0062 81.8777C96.7722 74.5618 97.405 66.6112 95.8312 58.9499C91.2375 38.6843 80.3594 32.0218 79.1875 29.478C78.1764 27.8941 77.3134 26.2203 76.6094 24.478L77.475 80.9437C77.475 80.9437 75.6812 98.1999 80.2062 100.278Z" fill="url(#paint2_linear_21_465)"/>
<path d="M75.3969 101.028C75.3969 101.028 56.2688 88 57.3751 64.9531C57.4783 58.0051 59.0713 51.1602 62.0467 44.8807C65.022 38.6012 69.3103 33.0333 74.6219 28.5531C75.2427 28.0258 75.7358 27.3646 76.0643 26.6193C76.3929 25.874 76.5483 25.064 76.5188 24.25C77.7094 26.8125 77.5157 62.5094 77.6407 66.6844C78.1251 82.925 76.7376 97.9625 75.3969 101.028Z" fill="url(#paint3_linear_21_465)"/>
<defs>
<linearGradient id="paint0_linear_21_465" x1="77.1795" y1="-30.0457" x2="77.1795" y2="173.277" gradientUnits="userSpaceOnUse">
<stop stop-color="white" stop-opacity="0.13"/>
<stop offset="1"/>
</linearGradient>
<linearGradient id="paint1_linear_21_465" x1="63.1614" y1="68.7884" x2="89.7306" y2="84.3683" gradientUnits="userSpaceOnUse">
<stop offset="0.231" stop-color="#999875"/>
<stop offset="0.563" stop-color="#9B9977"/>
<stop offset="0.683" stop-color="#A09F7E"/>
<stop offset="0.768" stop-color="#A9A889"/>
<stop offset="0.837" stop-color="#B7B69A"/>
<stop offset="0.896" stop-color="#C9C7B0"/>
<stop offset="0.948" stop-color="#DEDDCB"/>
<stop offset="0.994" stop-color="#F8F6EB"/>
<stop offset="1" stop-color="#FBF9EF"/>
</linearGradient>
<linearGradient id="paint2_linear_21_465" x1="77" y1="51.1631" x2="84.7304" y2="66.6829" gradientUnits="userSpaceOnUse">
<stop stop-color="#2C6A2C"/>
<stop offset="1" stop-color="#339938"/>
</linearGradient>
<linearGradient id="paint3_linear_21_465" x1="55.7297" y1="67.2344" x2="87.7316" y2="56.517" gradientUnits="userSpaceOnUse">
<stop stop-color="#245527"/>
<stop offset="0.352" stop-color="#265426"/>
<stop offset="0.956" stop-color="#3C6E30"/>
<stop offset="1" stop-color="#488439"/>
</linearGradient>
</defs>
</svg>
