<svg width="155" height="135" viewBox="0 0 155 135" fill="none" xmlns="http://www.w3.org/2000/svg">
<rect width="154" height="135" rx="4" fill="url(#paint0_linear_21_374)"/>
<path d="M76.4574 98.2342C76.1185 98.2342 75.802 98.1438 75.5081 97.9856L72.5019 96.2C72.0497 95.9512 72.2758 95.8608 72.4115 95.8157C73.0217 95.6123 73.1348 95.5669 73.7677 95.2055C73.8355 95.1601 73.9261 95.1828 73.9937 95.228L76.2994 96.6068C76.3898 96.652 76.5028 96.652 76.5705 96.6068L85.5895 91.3853C85.6799 91.3401 85.7252 91.2495 85.7252 91.1367V80.7163C85.7252 80.6031 85.6799 80.5129 85.5895 80.4676L76.5705 75.2687C76.4801 75.2233 76.3671 75.2233 76.2994 75.2687L67.2804 80.4676C67.19 80.5127 67.1446 80.6258 67.1446 80.7161V91.1365C67.1446 91.227 67.19 91.3399 67.2804 91.3853L69.7442 92.8093C71.0779 93.4873 71.9142 92.6962 71.9142 91.9051V81.6203C71.9142 81.4848 72.0272 81.349 72.1854 81.349H73.3382C73.4739 81.349 73.6094 81.4621 73.6094 81.6203V91.9051C73.6094 93.6907 72.6374 94.7306 70.9422 94.7306C70.4223 94.7306 70.0155 94.7306 68.8626 94.1654L66.4892 92.8093C65.9015 92.4703 65.5399 91.8372 65.5399 91.1592V80.7388C65.5399 80.0608 65.9015 79.4277 66.4892 79.0887L75.5081 73.8672C76.0733 73.5508 76.8419 73.5508 77.407 73.8672L86.4258 79.0887C87.0135 79.4277 87.3753 80.0608 87.3753 80.7388V91.1592C87.3753 91.8372 87.0135 92.4703 86.4258 92.8093L77.407 98.0308C77.113 98.1665 76.7739 98.2342 76.4574 98.2342ZM79.238 91.0688C75.2824 91.0688 74.4686 89.2605 74.4686 87.7235C74.4686 87.5877 74.5816 87.4522 74.7399 87.4522H75.9153C76.0508 87.4522 76.1639 87.5426 76.1639 87.6783C76.3448 88.8762 76.8646 89.4639 79.2606 89.4639C81.1593 89.4639 81.9733 89.0344 81.9733 88.0172C81.9733 87.4295 81.747 87.0002 78.786 86.7063C76.3221 86.4575 74.7851 85.9152 74.7851 83.9486C74.7851 82.1176 76.3223 81.0326 78.899 81.0326C81.7922 81.0326 83.2164 82.0273 83.3973 84.197C83.3973 84.2651 83.3746 84.3327 83.3294 84.4006C83.2841 84.4458 83.2164 84.491 83.1485 84.491H81.9731C81.8601 84.491 81.747 84.4006 81.7245 84.2876C81.4533 83.0445 80.7525 82.6375 78.899 82.6375C76.8194 82.6375 76.5707 83.3609 76.5707 83.9033C76.5707 84.5588 76.8646 84.7622 79.6674 85.1239C82.4478 85.4857 83.7589 86.0055 83.7589 87.9494C83.7362 89.9386 82.1088 91.0688 79.238 91.0688Z" fill="url(#paint1_linear_21_374)"/>
<path d="M48.4738 57.4793C48.4738 57.0725 48.2477 56.688 47.8861 56.4846L38.302 50.9693C38.1436 50.8788 37.9629 50.8336 37.7822 50.8109H37.6916C37.5109 50.8109 37.33 50.8788 37.1718 50.9693L27.5877 56.4846C27.2259 56.688 27 57.0723 27 57.4793L27.0227 72.3074C27.0227 72.5108 27.1357 72.7142 27.3164 72.8048C27.4974 72.9178 27.7232 72.9178 27.8817 72.8048L33.5778 69.5498C33.9395 69.3464 34.1656 68.9621 34.1656 68.5553V61.6158C34.1656 61.209 34.3915 60.8247 34.7533 60.6213L37.1718 59.2198C37.3527 59.1067 37.5561 59.0614 37.7595 59.0614C37.9629 59.0614 38.1663 59.1067 38.3247 59.2198L40.7432 60.6213C41.105 60.8247 41.3309 61.2088 41.3309 61.6158V68.5553C41.3309 68.9621 41.557 69.3464 41.9186 69.5498L47.6148 72.8048C47.7028 72.8602 47.8047 72.8896 47.9087 72.8896C48.0127 72.8896 48.1145 72.8602 48.2025 72.8048C48.3834 72.7142 48.4965 72.5108 48.4965 72.3074L48.4738 57.4793ZM94.5406 37.0679C94.3599 36.9774 94.1338 36.9774 93.9754 37.0679C93.7947 37.181 93.6817 37.3617 93.6817 37.5651V52.2578C93.6817 52.3933 93.614 52.5289 93.4783 52.6194C93.3427 52.6871 93.207 52.6871 93.0715 52.6194L90.6754 51.2406C90.4998 51.1406 90.3011 51.088 90.099 51.088C89.8968 51.088 89.6982 51.1406 89.5225 51.2406L79.9384 56.7786C79.5768 56.982 79.3507 57.3663 79.3507 57.7731V68.8263C79.3507 69.2331 79.5768 69.6176 79.9384 69.821L89.5225 75.359C89.6982 75.459 89.8968 75.5116 90.099 75.5116C90.3011 75.5116 90.4998 75.459 90.6754 75.359L100.26 69.821C100.621 69.6176 100.847 69.2333 100.847 68.8263V41.2722C100.847 40.8427 100.621 40.4586 100.26 40.255L94.5406 37.0679ZM93.6592 65.1872C93.6592 65.3003 93.614 65.3906 93.5234 65.4358L90.246 67.3345C90.2002 67.3568 90.1499 67.3684 90.099 67.3684C90.048 67.3684 89.9978 67.3568 89.952 67.3345L86.6745 65.4358C86.584 65.3906 86.5388 65.2776 86.5388 65.1872V61.3897C86.5388 61.2767 86.584 61.1863 86.6745 61.1411L89.952 59.2423C89.9978 59.2199 90.048 59.2083 90.099 59.2083C90.1499 59.2083 90.2002 59.2199 90.246 59.2423L93.5234 61.1411C93.614 61.1861 93.6592 61.2993 93.6592 61.3897V65.1872ZM126.435 61.2993C126.797 61.0959 127 60.7116 127 60.3046V57.6149C127 57.2081 126.774 56.8238 126.435 56.6204L116.919 51.1051C116.743 51.0051 116.544 50.9525 116.342 50.9525C116.14 50.9525 115.941 51.0051 115.766 51.1051L106.182 56.6428C105.82 56.8462 105.594 57.2306 105.594 57.6374V68.6908C105.594 69.0976 105.82 69.4819 106.182 69.6853L115.698 75.1102C116.06 75.3136 116.489 75.3136 116.828 75.1102L122.592 71.9008C122.773 71.8102 122.886 71.6068 122.886 71.4034C122.886 71.2 122.773 70.9967 122.592 70.9061L112.963 65.3681C112.782 65.2551 112.669 65.0744 112.669 64.871V61.4126C112.669 61.2092 112.782 61.0058 112.963 60.9152L115.969 59.1973C116.057 59.1419 116.159 59.1125 116.263 59.1125C116.367 59.1125 116.469 59.1419 116.557 59.1973L119.563 60.9152C119.744 61.0283 119.857 61.209 119.857 61.4126V64.125C119.857 64.3284 119.97 64.5318 120.151 64.6222C120.239 64.6776 120.341 64.707 120.445 64.707C120.549 64.707 120.651 64.6776 120.739 64.6222L126.435 61.2993Z" fill="url(#paint2_linear_21_374)"/>
<path d="M116.195 60.7793C116.229 60.7572 116.268 60.7454 116.308 60.7454C116.348 60.7454 116.388 60.7572 116.421 60.7793L118.252 61.8417C118.32 61.887 118.365 61.9547 118.365 62.0451V64.17C118.365 64.2604 118.32 64.3282 118.252 64.3734L116.421 65.4358C116.388 65.4579 116.348 65.4697 116.308 65.4697C116.268 65.4697 116.229 65.4579 116.195 65.4358L114.364 64.3734C114.297 64.3282 114.251 64.2604 114.251 64.17V62.0452C114.251 61.9547 114.296 61.8868 114.364 61.8418L116.195 60.7793Z" fill="url(#paint3_linear_21_374)"/>
<path d="M64.5 51.1502C64.3244 51.0503 64.1258 50.9977 63.9237 50.9977C63.7216 50.9977 63.5229 51.0503 63.3473 51.1502L53.8311 56.6426C53.4693 56.846 53.2659 57.2303 53.2659 57.6371V68.6454C53.2659 69.0522 53.492 69.4365 53.8311 69.6399L63.3473 75.1327C63.5229 75.2327 63.7216 75.2853 63.9237 75.2853C64.1258 75.2853 64.3244 75.2327 64.5 75.1327L74.0164 69.6399C74.378 69.4365 74.5816 69.0522 74.5816 68.6454V57.6373C74.5816 57.2305 74.3554 56.8462 74.0164 56.6428L64.5 51.1502Z" fill="url(#paint4_linear_21_374)"/>
<defs>
<linearGradient id="paint0_linear_21_374" x1="77.1795" y1="-30.0457" x2="77.1795" y2="173.277" gradientUnits="userSpaceOnUse">
<stop/>
<stop offset="1" stop-color="white" stop-opacity="0.13"/>
</linearGradient>
<linearGradient id="paint1_linear_21_374" x1="76.4576" y1="66.9165" x2="76.4576" y2="98.2342" gradientUnits="userSpaceOnUse">
<stop stop-color="white"/>
<stop offset="1"/>
</linearGradient>
<linearGradient id="paint2_linear_21_374" x1="77" y1="37" x2="77" y2="75.5116" gradientUnits="userSpaceOnUse">
<stop offset="0.605023"/>
<stop offset="0.935023" stop-color="white"/>
</linearGradient>
<linearGradient id="paint3_linear_21_374" x1="116.308" y1="59.3106" x2="116.308" y2="63.5455" gradientUnits="userSpaceOnUse">
<stop stop-color="white" stop-opacity="0"/>
<stop offset="1"/>
</linearGradient>
<linearGradient id="paint4_linear_21_374" x1="58.4377" y1="53.733" x2="68.5789" y2="71.4801" gradientUnits="userSpaceOnUse">
<stop/>
<stop offset="0.0001" stop-color="#ACACAC"/>
<stop offset="1" stop-opacity="0.7"/>
</linearGradient>
</defs>
</svg>
