<svg width="155" height="135" viewBox="0 0 155 135" fill="none" xmlns="http://www.w3.org/2000/svg">
<rect width="154" height="135" rx="4" fill="url(#paint0_linear_21_377)"/>
<path d="M76.4551 98.2376C76.1162 98.2376 75.7997 98.1472 75.5058 97.989L72.4996 96.2034C72.0474 95.9546 72.2735 95.8643 72.4092 95.8191C73.0194 95.6157 73.1324 95.5703 73.7653 95.2089C73.8332 95.1635 73.9238 95.1862 73.9914 95.2314L76.2971 96.6102C76.3874 96.6554 76.5005 96.6554 76.5682 96.6102L85.5872 91.3887C85.6776 91.3435 85.7229 91.2529 85.7229 91.1401V80.7197C85.7229 80.6065 85.6776 80.5163 85.5872 80.471L76.5682 75.2721C76.4778 75.2268 76.3648 75.2268 76.2971 75.2721L67.278 80.471C67.1877 80.5162 67.1423 80.6292 67.1423 80.7196V91.1399C67.1423 91.2305 67.1877 91.3433 67.278 91.3887L69.7419 92.8127C71.0756 93.4907 71.9119 92.6996 71.9119 91.9085V81.6237C71.9119 81.4882 72.0249 81.3524 72.1831 81.3524H73.3358C73.4716 81.3524 73.6071 81.4655 73.6071 81.6237V91.9085C73.6071 93.6941 72.6351 94.734 70.9398 94.734C70.42 94.734 70.0132 94.734 68.8603 94.1688L66.4869 92.8127C65.8992 92.4737 65.5376 91.8407 65.5376 91.1626V80.7422C65.5376 80.0642 65.8992 79.4311 66.4869 79.0922L75.5058 73.8706C76.071 73.5542 76.8396 73.5542 77.4046 73.8706L86.4235 79.0922C87.0112 79.4311 87.373 80.0642 87.373 80.7422V91.1626C87.373 91.8407 87.0112 92.4737 86.4235 92.8127L77.4046 98.0342C77.1107 98.1699 76.7716 98.2376 76.4551 98.2376ZM79.2356 91.0722C75.2801 91.0722 74.4663 89.2639 74.4663 87.7269C74.4663 87.5912 74.5793 87.4556 74.7376 87.4556H75.913C76.0485 87.4556 76.1615 87.546 76.1615 87.6817C76.3425 88.8796 76.8623 89.4673 79.2583 89.4673C81.157 89.4673 81.971 89.0378 81.971 88.0206C81.971 87.4329 81.7447 87.0036 78.7837 86.7097C76.3198 86.4609 74.7827 85.9186 74.7827 83.9521C74.7827 82.1211 76.32 81.036 78.8967 81.036C81.7899 81.036 83.2141 82.0307 83.395 84.2004C83.395 84.2685 83.3723 84.3362 83.3271 84.404C83.2817 84.4492 83.2141 84.4944 83.1462 84.4944H81.9708C81.8577 84.4944 81.7447 84.404 81.7222 84.291C81.4509 83.0479 80.7502 82.6409 78.8967 82.6409C76.8171 82.6409 76.5683 83.3643 76.5683 83.9067C76.5683 84.5623 76.8623 84.7657 79.6651 85.1273C82.4454 85.4891 83.7566 86.0089 83.7566 87.9528C83.7339 89.942 82.1065 91.0722 79.2356 91.0722Z" fill="url(#paint1_linear_21_377)"/>
<path d="M48.4738 57.4793C48.4738 57.0725 48.2477 56.688 47.8861 56.4846L38.302 50.9693C38.1436 50.8788 37.9629 50.8336 37.7822 50.8109H37.6916C37.5109 50.8109 37.33 50.8788 37.1718 50.9693L27.5877 56.4846C27.2259 56.688 27 57.0723 27 57.4793L27.0227 72.3074C27.0227 72.5108 27.1357 72.7142 27.3164 72.8048C27.4974 72.9178 27.7232 72.9178 27.8817 72.8048L33.5778 69.5498C33.9395 69.3464 34.1656 68.9621 34.1656 68.5553V61.6158C34.1656 61.209 34.3915 60.8247 34.7533 60.6213L37.1718 59.2198C37.3527 59.1067 37.5561 59.0614 37.7595 59.0614C37.9629 59.0614 38.1663 59.1067 38.3247 59.2198L40.7432 60.6213C41.105 60.8247 41.3309 61.2088 41.3309 61.6158V68.5553C41.3309 68.9621 41.557 69.3464 41.9186 69.5498L47.6148 72.8048C47.7028 72.8602 47.8047 72.8896 47.9087 72.8896C48.0127 72.8896 48.1145 72.8602 48.2025 72.8048C48.3834 72.7142 48.4965 72.5108 48.4965 72.3074L48.4738 57.4793ZM94.5406 37.0679C94.3599 36.9774 94.1338 36.9774 93.9754 37.0679C93.7947 37.181 93.6817 37.3617 93.6817 37.5651V52.2578C93.6817 52.3933 93.614 52.5289 93.4783 52.6194C93.3427 52.6871 93.207 52.6871 93.0715 52.6194L90.6754 51.2406C90.4998 51.1406 90.3011 51.088 90.099 51.088C89.8968 51.088 89.6982 51.1406 89.5225 51.2406L79.9384 56.7786C79.5768 56.982 79.3507 57.3663 79.3507 57.7731V68.8263C79.3507 69.2331 79.5768 69.6176 79.9384 69.821L89.5225 75.359C89.6982 75.459 89.8968 75.5116 90.099 75.5116C90.3011 75.5116 90.4998 75.459 90.6754 75.359L100.26 69.821C100.621 69.6176 100.847 69.2333 100.847 68.8263V41.2722C100.847 40.8428 100.621 40.4586 100.26 40.255L94.5406 37.0679ZM93.6592 65.1872C93.6592 65.3003 93.614 65.3906 93.5234 65.4358L90.246 67.3345C90.2002 67.3568 90.1499 67.3684 90.099 67.3684C90.048 67.3684 89.9978 67.3568 89.952 67.3345L86.6745 65.4358C86.584 65.3906 86.5388 65.2776 86.5388 65.1872V61.3897C86.5388 61.2767 86.584 61.1863 86.6745 61.1411L89.952 59.2423C89.9978 59.2199 90.048 59.2083 90.099 59.2083C90.1499 59.2083 90.2002 59.2199 90.246 59.2423L93.5234 61.1411C93.614 61.1861 93.6592 61.2993 93.6592 61.3897V65.1872ZM126.435 61.2993C126.797 61.0959 127 60.7116 127 60.3046V57.6149C127 57.2081 126.774 56.8238 126.435 56.6204L116.919 51.1051C116.743 51.0051 116.544 50.9525 116.342 50.9525C116.14 50.9525 115.941 51.0051 115.766 51.1051L106.182 56.6428C105.82 56.8462 105.594 57.2306 105.594 57.6374V68.6908C105.594 69.0976 105.82 69.4819 106.182 69.6853L115.698 75.1102C116.06 75.3136 116.489 75.3136 116.828 75.1102L122.592 71.9008C122.773 71.8103 122.886 71.6068 122.886 71.4035C122.886 71.2001 122.773 70.9967 122.592 70.9061L112.963 65.3681C112.782 65.2551 112.669 65.0744 112.669 64.871V61.4126C112.669 61.2092 112.782 61.0058 112.963 60.9152L115.969 59.1973C116.057 59.1419 116.159 59.1125 116.263 59.1125C116.367 59.1125 116.469 59.1419 116.557 59.1973L119.563 60.9152C119.744 61.0283 119.857 61.209 119.857 61.4126V64.125C119.857 64.3284 119.97 64.5318 120.151 64.6222C120.239 64.6776 120.341 64.707 120.445 64.707C120.549 64.707 120.651 64.6776 120.739 64.6222L126.435 61.2993Z" fill="url(#paint2_linear_21_377)"/>
<path d="M116.2 60.7766C116.233 60.7545 116.273 60.7427 116.313 60.7427C116.353 60.7427 116.392 60.7545 116.426 60.7766L118.257 61.839C118.324 61.8843 118.37 61.952 118.37 62.0424V64.1673C118.37 64.2577 118.325 64.3255 118.257 64.3707L116.426 65.4331C116.392 65.4552 116.353 65.467 116.313 65.467C116.273 65.467 116.233 65.4552 116.2 65.4331L114.369 64.3707C114.301 64.3255 114.256 64.2577 114.256 64.1673V62.0426C114.256 61.952 114.301 61.8841 114.369 61.8392L116.2 60.7766Z" fill="url(#paint3_linear_21_377)"/>
<path d="M64.5037 51.154C64.328 51.054 64.1294 51.0015 63.9273 51.0015C63.7252 51.0015 63.5266 51.054 63.3509 51.154L53.8347 56.6464C53.4729 56.8498 53.2695 57.2341 53.2695 57.6409V68.6492C53.2695 69.056 53.4956 69.4403 53.8347 69.6437L63.3509 75.1365C63.5266 75.2365 63.7252 75.289 63.9273 75.289C64.1294 75.289 64.328 75.2365 64.5037 75.1365L74.0201 69.6437C74.3817 69.4403 74.5853 69.056 74.5853 68.6492V57.6411C74.5853 57.2343 74.359 56.85 74.0201 56.6466L64.5037 51.154Z" fill="url(#paint4_linear_21_377)"/>
<defs>
<linearGradient id="paint0_linear_21_377" x1="77.1795" y1="-30.0457" x2="77.1795" y2="173.277" gradientUnits="userSpaceOnUse">
<stop stop-color="white" stop-opacity="0.13"/>
<stop offset="1"/>
</linearGradient>
<linearGradient id="paint1_linear_21_377" x1="76.4553" y1="73.6333" x2="76.4553" y2="88.2165" gradientUnits="userSpaceOnUse">
<stop stop-opacity="0"/>
<stop offset="1" stop-color="#539E43"/>
</linearGradient>
<linearGradient id="paint2_linear_21_377" x1="77" y1="37" x2="77" y2="75.5116" gradientUnits="userSpaceOnUse">
<stop stop-color="white"/>
<stop offset="0.707815"/>
</linearGradient>
<linearGradient id="paint3_linear_21_377" x1="116.247" y1="60.322" x2="116.313" y2="63.5428" gradientUnits="userSpaceOnUse">
<stop stop-opacity="0"/>
<stop offset="1" stop-color="#549E44"/>
</linearGradient>
<linearGradient id="paint4_linear_21_377" x1="58.4414" y1="53.7368" x2="68.5826" y2="71.4839" gradientUnits="userSpaceOnUse">
<stop/>
<stop offset="1" stop-color="#539E43"/>
</linearGradient>
</defs>
</svg>
