<svg width="155" height="135" viewBox="0 0 155 135" fill="none" xmlns="http://www.w3.org/2000/svg">
<rect width="155" height="135" rx="4" fill="url(#paint0_linear_17_64)"/>
<path d="M118.625 49.975C118.655 48.6127 118.311 47.2682 117.631 46.0875C116.918 44.9282 115.908 43.9801 114.706 43.3406C103.885 37.3656 93.0593 31.3938 82.228 25.425C80.9221 24.6394 79.4242 24.2305 77.9002 24.2438C76.3763 24.257 74.8857 24.6918 73.5936 25.5C69.2874 27.9344 47.7343 39.7656 41.3093 43.3313C40.0866 43.9454 39.0659 44.8976 38.3685 46.0748C37.6711 47.2519 37.3262 48.6045 37.3749 49.9719V86.0313C37.3433 87.3628 37.6669 88.6787 38.3124 89.8438C39.0301 91.0364 40.0613 92.0092 41.2936 92.6562C47.7186 96.2219 69.2749 108.053 73.5811 110.488C74.8726 111.297 76.3629 111.733 77.8869 111.747C79.4108 111.761 80.909 111.353 82.2155 110.569C93.028 104.588 103.847 98.6156 114.672 92.6531C115.904 92.0052 116.936 91.0327 117.656 89.8406C118.302 88.6756 118.625 87.3597 118.594 86.0281V49.975" fill="url(#paint1_linear_17_64)"/>
<path d="M89.25 74.3125C87.858 76.7881 85.6866 78.7341 83.0738 79.8476C80.461 80.9611 77.5534 81.1796 74.8036 80.4692C72.0537 79.7588 69.6158 78.1592 67.8694 75.9195C66.1229 73.6798 65.1658 70.9256 65.147 68.0855C65.1283 65.2454 66.0489 62.4788 67.7656 60.2162C69.4824 57.9537 71.8989 56.3221 74.6391 55.5754C77.3794 54.8287 80.2896 55.0088 82.9168 56.0876C85.5441 57.1665 87.741 59.0836 89.1656 61.5406L100.463 55.0625C97.5951 50.1415 93.1892 46.2999 87.9236 44.1293C82.658 41.9587 76.8248 41.5796 71.3225 43.0503C65.8202 44.5211 60.9542 47.7602 57.4739 52.2686C53.9936 56.777 52.0922 62.3046 52.0625 68C52.0569 72.5162 53.2426 76.9541 55.5 80.8656C57.7859 84.8165 61.0718 88.0958 65.0272 90.3739C68.9826 92.652 73.468 93.8485 78.0325 93.8431C82.5971 93.8377 87.0797 92.6307 91.0297 90.3432C94.9797 88.0558 98.2578 84.7687 100.534 80.8125L89.25 74.3125Z" fill="white"/>
<path d="M103.237 66.5562H100.344V63.6781H97.4531V66.5562H94.5593V69.4406H97.4531V72.3156H100.344V69.4406H103.237V66.5562ZM114.091 66.5562H111.197V63.6781H108.303V66.5562H105.409V69.4406H108.303V72.3156H111.197V69.4406H114.091V66.5562Z" fill="white"/>
<defs>
<linearGradient id="paint0_linear_17_64" x1="77.6807" y1="-30.0457" x2="77.6807" y2="173.277" gradientUnits="userSpaceOnUse">
<stop stop-color="white" stop-opacity="0.13"/>
<stop offset="1"/>
</linearGradient>
<linearGradient id="paint1_linear_17_64" x1="77.9985" y1="24.2435" x2="77.9985" y2="111.747" gradientUnits="userSpaceOnUse">
<stop stop-color="#000C39"/>
<stop offset="1" stop-color="#9CB2FF"/>
</linearGradient>
</defs>
</svg>
