<svg width="155" height="135" viewBox="0 0 155 135" fill="none" xmlns="http://www.w3.org/2000/svg">
<rect width="154" height="135" rx="4" fill="url(#paint0_linear_17_123)"/>
<path d="M110.333 34.6667L102 95.0834L77 103.417L52 95.0834L43.6666 34.6667H110.333Z" stroke="url(#paint1_linear_17_123)" stroke-width="6" stroke-linecap="round" stroke-linejoin="round"/>
<path d="M58.25 51.3334H70.75V84.6667L62.4167 80.5M95.75 51.3334H85.3333C84.7808 51.3334 84.2509 51.5529 83.8602 51.9436C83.4695 52.3343 83.25 52.8642 83.25 53.4167V65.9167C83.25 66.4692 83.4695 66.9991 83.8602 67.3898C84.2509 67.7805 84.7808 68 85.3333 68H91.2625C91.5607 68.0001 91.8554 68.0641 92.1267 68.1879C92.3981 68.3116 92.6396 68.4922 92.8352 68.7174C93.0307 68.9425 93.1756 69.207 93.2601 69.493C93.3446 69.779 93.3667 70.0798 93.325 70.375L91.5833 82.5834L83.25 84.6667" stroke="url(#paint2_linear_17_123)" stroke-width="6" stroke-linecap="round" stroke-linejoin="round"/>
<defs>
<linearGradient id="paint0_linear_17_123" x1="77.1795" y1="-30.0457" x2="77.1795" y2="173.277" gradientUnits="userSpaceOnUse">
<stop/>
<stop offset="1" stop-color="white" stop-opacity="0.13"/>
</linearGradient>
<linearGradient id="paint1_linear_17_123" x1="77" y1="34.6667" x2="77" y2="103.417" gradientUnits="userSpaceOnUse">
<stop stop-color="#A1A1A1" stop-opacity="0"/>
<stop offset="0.339113"/>
</linearGradient>
<linearGradient id="paint2_linear_17_123" x1="77" y1="51.3334" x2="77" y2="84.6667" gradientUnits="userSpaceOnUse">
<stop stop-color="#A1A1A1" stop-opacity="0"/>
<stop offset="0.339113"/>
</linearGradient>
</defs>
</svg>
