<svg width="155" height="135" viewBox="0 0 155 135" fill="none" xmlns="http://www.w3.org/2000/svg">
<rect width="154" height="135" rx="4" fill="url(#paint0_linear_21_446)"/>
<g clip-path="url(#clip0_21_446)">
<path d="M125.451 64.6078L82.3914 21.55C79.9133 19.0703 75.8914 19.0703 73.4094 21.55L64.4688 30.4921L75.8109 41.8343C78.4477 40.9445 81.4695 41.5414 83.5703 43.6421C85.682 45.7562 86.2742 48.8039 85.3625 51.4492L96.2938 62.3812C98.9383 61.4695 101.991 62.0585 104.102 64.1742C107.055 67.125 107.055 71.9085 104.102 74.8609C103.4 75.563 102.567 76.12 101.649 76.5C100.732 76.88 99.7494 77.0756 98.7566 77.0756C97.7639 77.0756 96.781 76.88 95.8639 76.5C94.9468 76.12 94.1135 75.563 93.4117 74.8609C92.3573 73.8059 91.6386 72.4625 91.346 70.9999C91.0534 69.5373 91.1999 68.0208 91.7672 66.6414L81.5734 56.4476L81.5719 83.2765C82.3115 83.6407 82.9867 84.1231 83.5711 84.7046C86.5227 87.6554 86.5227 92.4374 83.5711 95.3945C80.6188 98.3453 75.8336 98.3453 72.8844 95.3945C69.9328 92.4382 69.9328 87.6562 72.8844 84.7046C73.5915 83.9964 74.4326 83.436 75.3586 83.0562V55.9789C74.4319 55.6001 73.5905 55.0393 72.8844 54.3296C70.6484 52.0953 70.1102 48.814 71.257 46.0671L60.075 34.8851L30.55 64.4085C29.3589 65.6001 28.6897 67.2159 28.6897 68.9007C28.6897 70.5855 29.3589 72.2014 30.55 73.3929L73.6102 116.451C76.0899 118.93 80.1102 118.93 82.5938 116.451L125.452 73.5929C126.642 72.401 127.311 70.7851 127.311 69.1002C127.311 67.4153 126.642 65.7994 125.451 64.6078Z" fill="url(#paint1_linear_21_446)"/>
</g>
<defs>
<linearGradient id="paint0_linear_21_446" x1="77.1795" y1="-30.0457" x2="77.1795" y2="173.277" gradientUnits="userSpaceOnUse">
<stop stop-color="white" stop-opacity="0.13"/>
<stop offset="1"/>
</linearGradient>
<linearGradient id="paint1_linear_21_446" x1="77.4899" y1="78.1837" x2="77.4899" y2="125.633" gradientUnits="userSpaceOnUse">
<stop stop-color="#9C2323"/>
<stop offset="1" stop-color="white" stop-opacity="0"/>
</linearGradient>
<clipPath id="clip0_21_446">
<rect width="100" height="100" fill="white" transform="translate(28 19)"/>
</clipPath>
</defs>
</svg>
