<svg width="155" height="135" viewBox="0 0 155 135" fill="none" xmlns="http://www.w3.org/2000/svg">
<rect width="154" height="135" rx="4" fill="url(#paint0_linear_21_255)"/>
<path d="M64.2008 94.6562C64.2008 94.6562 60.4765 96.8234 66.8547 97.5547C74.5828 98.4375 78.532 98.3109 87.0461 96.7016C87.0461 96.7016 89.2891 98.1039 92.4156 99.3195C73.3226 107.499 49.2062 98.8453 64.2008 94.6562ZM61.8664 83.9805C61.8664 83.9805 57.6883 87.0734 64.0719 87.7344C72.3273 88.5867 78.8453 88.6563 90.1297 86.4844C90.1297 86.4844 91.6867 88.0664 94.1391 88.9305C71.0594 95.6805 45.3531 89.4617 61.8664 83.9805Z" fill="url(#paint1_linear_21_255)"/>
<path d="M81.5327 65.868C86.2398 71.2859 80.2984 76.157 80.2984 76.157C80.2984 76.157 92.2429 69.9922 86.7585 62.2687C81.6343 55.0695 77.7062 51.4937 98.9734 39.1594C98.9734 39.1601 65.5898 47.4953 81.5327 65.868Z" fill="url(#paint2_linear_21_255)"/>
<path d="M106.784 102.554C106.784 102.554 109.541 104.827 103.746 106.584C92.729 109.922 57.8821 110.928 48.204 106.718C44.7266 105.204 51.25 103.105 53.3024 102.662C55.4422 102.198 56.6641 102.283 56.6641 102.283C52.7946 99.5586 31.6539 107.634 45.9274 109.951C84.85 116.26 116.878 107.109 106.784 102.554ZM65.9938 72.9172C65.9938 72.9172 48.2704 77.1273 59.718 78.6578C64.5524 79.3047 74.1852 79.1562 83.1641 78.4031C90.5 77.7867 97.8618 76.4703 97.8618 76.4703C97.8618 76.4703 95.2774 77.5789 93.4055 78.8555C75.404 83.5906 40.6368 81.3851 50.6469 76.5445C59.1094 72.4515 65.9938 72.9172 65.9938 72.9172ZM97.7883 90.6883C116.086 81.1828 107.625 72.0476 101.72 73.2781C100.276 73.5789 99.6282 73.8406 99.6282 73.8406C99.6282 73.8406 100.166 72.9976 101.191 72.6351C112.873 68.5297 121.856 84.7469 97.4227 91.1703C97.4227 91.1687 97.7032 90.9148 97.7883 90.6883Z" fill="url(#paint3_linear_21_255)"/>
<path d="M86.7586 19.2398C86.7586 19.2398 96.8899 29.3773 77.1469 44.9609C61.3141 57.4656 73.5368 64.5937 77.1414 72.7414C67.8985 64.4031 61.1188 57.0617 65.6664 50.2297C72.3446 40.2031 90.8453 35.3398 86.7586 19.2398Z" fill="url(#paint4_linear_21_255)"/>
<path d="M67.7921 116.454C85.3515 117.577 112.323 115.829 112.962 107.52C112.962 107.52 111.734 110.67 98.4483 113.169C83.4593 115.991 64.9687 115.662 54.0054 113.852C54.0054 113.852 56.2515 115.712 67.7921 116.454Z" fill="url(#paint5_linear_21_255)"/>
<defs>
<linearGradient id="paint0_linear_21_255" x1="77.1795" y1="-30.0457" x2="77.1795" y2="173.277" gradientUnits="userSpaceOnUse">
<stop stop-color="white" stop-opacity="0.13"/>
<stop offset="1"/>
</linearGradient>
<linearGradient id="paint1_linear_21_255" x1="75.3796" y1="83.9805" x2="75.3796" y2="102.711" gradientUnits="userSpaceOnUse">
<stop/>
<stop offset="1" stop-color="#009DFF" stop-opacity="0.41"/>
</linearGradient>
<linearGradient id="paint2_linear_21_255" x1="88.0963" y1="39.1594" x2="88" y2="78" gradientUnits="userSpaceOnUse">
<stop stop-color="#FF0001"/>
<stop offset="1" stop-opacity="0"/>
</linearGradient>
<linearGradient id="paint3_linear_21_255" x1="76.9788" y1="71.978" x2="76.9788" y2="112.099" gradientUnits="userSpaceOnUse">
<stop/>
<stop offset="1" stop-color="#009DFF" stop-opacity="0.41"/>
</linearGradient>
<linearGradient id="paint4_linear_21_255" x1="77" y1="46" x2="76.7865" y2="72.7414" gradientUnits="userSpaceOnUse">
<stop stop-color="#EA2D2E"/>
<stop offset="1"/>
</linearGradient>
<linearGradient id="paint5_linear_21_255" x1="83.4835" y1="107.52" x2="83.4835" y2="116.76" gradientUnits="userSpaceOnUse">
<stop/>
<stop offset="1" stop-color="#009DFF" stop-opacity="0.41"/>
</linearGradient>
</defs>
</svg>
