<svg width="24" height="24" viewBox="0 0 24 24" fill="none" xmlns="http://www.w3.org/2000/svg">
<g clip-path="url(#clip0_2007_94)">
<path d="M7.12422 7.21869L6.44472 9.39819L5.78847 7.21869L3.60897 6.53919L5.78847 5.88294L6.44472 3.67944L7.12422 5.88294L9.30372 6.53919L7.12422 7.21869ZM10.9215 6.02319L10.593 7.12494L10.218 6.02319L9.13947 5.67144L10.218 5.34294L10.593 4.26444L10.9215 5.34294L12 5.67144L10.9215 6.02319ZM0.209967 17.9999L13.6395 4.96869C13.7332 4.85169 13.8742 4.78119 14.0377 4.78119C14.2485 4.75794 14.46 4.82844 14.6235 4.99194C14.694 5.03919 14.7877 5.13294 14.928 5.24994C15.186 5.48469 15.4672 5.76594 15.678 6.04719C15.7717 6.18819 15.819 6.30519 15.819 6.42219C15.8422 6.65694 15.7717 6.86769 15.6315 7.00794L2.20197 20.0864C2.08497 20.2034 1.94397 20.2507 1.77972 20.2739C1.56897 20.2972 1.35747 20.2267 1.19397 20.0632C1.12347 19.9927 1.02972 19.9222 0.889467 19.7819C0.631467 19.5712 0.350217 19.2899 0.162717 18.9847C0.0689666 18.8437 0.0217166 18.7034 -0.00153344 18.5864C-0.0247834 18.3517 0.0457166 18.1642 0.209217 18.0007L0.209967 17.9999ZM10.9912 8.53119L11.976 9.53919L15.093 6.51594L14.1082 5.48469L10.9912 8.53119ZM4.45272 9.86694L4.14822 10.9454L3.81972 9.86694L2.74122 9.51519L3.81972 9.18669L4.14822 8.08494L4.45272 9.18669L5.57772 9.51519L4.45272 9.86694ZM15.3742 9.04719L15.726 10.1489L16.8045 10.4774L15.726 10.8292L15.3742 11.9077L15.0225 10.8292L13.944 10.4774L15.0225 10.1489L15.3742 9.04719Z" fill="white"/>
</g>
<defs>
<clipPath id="clip0_2007_94">
<rect width="24" height="24" fill="white"/>
</clipPath>
</defs>
</svg>
