<svg width="200" height="200" viewBox="0 0 200 200" fill="none" xmlns="http://www.w3.org/2000/svg">
<mask id="path-1-outside-1_49_105" maskUnits="userSpaceOnUse" x="10.5" y="10.5" width="179" height="179" fill="black">
<rect fill="white" x="10.5" y="10.5" width="179" height="179"/>
<path d="M187.063 101.813C187.188 101.625 187.375 101.375 187.437 101.125V101.063C187.5 100.938 187.5 100.813 187.563 100.688C187.563 100.563 187.625 100.438 187.625 100.25V99.75C187.625 99.625 187.563 99.5 187.563 99.375V99.3125C187.563 99.1875 187.5 99.0625 187.437 99V98.9375L187.25 98.5625C187.187 98.4375 187.125 98.375 187.063 98.25L187 98.1875C186.938 98.0625 186.812 98 186.75 97.875C186.659 97.7767 186.553 97.6925 186.437 97.625L186.375 97.5625C186.237 97.5014 186.11 97.4168 186 97.3125C169.875 88.625 161 76.6875 159.75 61.875C158.75 50.5625 162.625 41.6875 162.625 41.625V41.5625C162.688 41.4375 162.75 41.3125 162.75 41.1875V41.125C162.813 41 162.812 40.875 162.812 40.75V39.75C162.802 39.5098 162.738 39.275 162.625 39.0625C162.625 39.0625 162.625 39 162.563 39C162.514 38.8879 162.451 38.7828 162.375 38.6875C162.312 38.5625 162.188 38.4375 162.125 38.375V38.3125L162.063 38.25L161.937 38.125L161.812 38L161.75 37.9375C161.625 37.875 161.562 37.75 161.437 37.6875C161.437 37.6875 161.375 37.6875 161.375 37.625C161.312 37.625 161.188 37.5625 161.125 37.5C161.125 37.5 161.063 37.5 161.063 37.4375C160.938 37.375 160.812 37.3125 160.687 37.3125H160.625C160.5 37.25 160.375 37.25 160.25 37.25H159.187C159.062 37.25 158.937 37.3125 158.812 37.3125C141.25 42.5625 126.563 40.4375 115.188 30.8125C106.563 23.5625 103 14.5625 103 14.5L102.813 14.125C102.75 14 102.688 13.9375 102.625 13.8125L102.562 13.75C102.5 13.625 102.375 13.5625 102.313 13.4375L102.062 13.1875L102 13.125C101.812 13 101.562 12.8125 101.312 12.75H101.25C101.125 12.6875 101 12.6875 100.875 12.625C100.625 12.5625 100.5 12.5 100.375 12.5H99.8125C99.6875 12.5 99.5625 12.5625 99.4375 12.5625H99.375C99.25 12.5625 99.1875 12.625 99.0625 12.6875C99.0625 12.6875 99 12.6875 99 12.75L98.625 12.9375H98.5625C98.4375 13 98.375 13.0625 98.25 13.125L98.1875 13.1875C98.0625 13.25 98 13.375 97.875 13.4375L97.625 13.6875L97.5625 13.75C97.5 13.875 97.4375 14 97.375 14.0625C88.6875 30.1875 76.75 39.0625 61.9375 40.3125C50.6875 41.4375 41.8125 37.5 41.75 37.5H41.6875L41.3125 37.3125H41.25C41.125 37.3125 41 37.25 40.9375 37.25H39.9375C39.6875 37.3125 39.4375 37.375 39.1875 37.5C39.1875 37.5 39.125 37.5 39.125 37.5625C39 37.5625 38.875 37.625 38.8125 37.6875C38.625 37.8125 38.5625 37.875 38.4375 37.9375H38.375L38.3125 38C38.3125 38.0625 38.3125 38.125 38.25 38.125C38.1875 38.1875 38.1875 38.25 38.125 38.25L38.0625 38.3125C38 38.4375 37.875 38.5625 37.8125 38.6875C37.8125 38.6875 37.8125 38.75 37.75 38.75C37.75 38.8125 37.6875 38.9375 37.625 39C37.625 39 37.625 39.0625 37.5625 39.0625C37.5625 39.1875 37.5 39.3125 37.4375 39.5C37.4375 39.625 37.375 39.75 37.375 39.875V40.8125C37.375 40.9375 37.4375 41.0625 37.4375 41.1875C42.6875 58.75 40.5625 73.4375 30.9375 84.8125C23.6875 93.4375 14.75 96.9375 14.5625 97L14.1875 97.1875H14.125C14 97.25 13.9375 97.3125 13.8125 97.375L13.75 97.4375C13.625 97.5 13.5625 97.625 13.4375 97.6875L13.375 97.75C13.3125 97.8125 13.25 97.9375 13.125 98L13.0625 98.0625C12.9375 98.25 12.8125 98.5 12.6875 98.75V98.8125C12.625 98.9375 12.625 99.0625 12.5625 99.1875C12.5625 99.3125 12.5 99.4375 12.5 99.5625V100.063C12.5 100.188 12.5625 100.312 12.5625 100.437V100.5C12.5625 100.625 12.625 100.75 12.6875 100.812V100.875L12.875 101.25C12.9375 101.375 13 101.438 13.0625 101.562L13.125 101.625C13.1875 101.75 13.3125 101.812 13.375 101.937C13.4375 102 13.5625 102.125 13.6875 102.188L13.75 102.25C13.875 102.313 14 102.375 14.125 102.5C30.25 111.187 39.125 123.125 40.375 137.937C41.5 149.437 37.625 158.313 37.625 158.375V158.438C37.5625 158.563 37.5 158.687 37.5 158.812V158.875C37.4375 159 37.4375 159.125 37.4375 159.25V160.25C37.5 160.5 37.5625 160.75 37.6875 161C37.6875 161 37.6875 161.063 37.75 161.063C37.8125 161.188 37.875 161.312 37.9375 161.375C38 161.5 38.125 161.625 38.1875 161.688V161.75L38.25 161.812L38.375 161.937L38.5 162.063L38.5625 162.125C38.6875 162.188 38.75 162.312 38.875 162.375C38.875 162.375 38.9375 162.375 38.9375 162.437C39.0625 162.5 39.125 162.563 39.25 162.625C39.25 162.625 39.3125 162.625 39.3125 162.688C39.4375 162.75 39.5625 162.812 39.6875 162.812H39.75C39.875 162.875 40 162.875 40.125 162.875H41.0625C41.1875 162.875 41.3125 162.812 41.4375 162.812C59 157.5 73.6875 159.688 85.0625 169.313C93.6875 176.563 97.25 185.563 97.25 185.625L97.4375 186C97.5 186.125 97.5625 186.187 97.625 186.312L97.6875 186.375C97.75 186.5 97.875 186.563 97.9375 186.688L98.1875 186.937L98.25 187C98.4375 187.125 98.6875 187.312 98.9375 187.375H99C99.125 187.437 99.25 187.438 99.375 187.5C99.5 187.5 99.625 187.563 99.75 187.563H100.5C100.625 187.563 100.687 187.5 100.812 187.5H100.875C101.12 187.434 101.352 187.329 101.562 187.188L101.625 187.125C101.688 187.063 101.812 187 101.875 186.937L101.937 186.875C102.062 186.812 102.125 186.688 102.188 186.625L102.25 186.563C102.313 186.5 102.375 186.437 102.437 186.312L102.5 186.25C102.562 186.125 102.625 186.062 102.688 185.938C111.375 169.813 123.313 160.937 138.125 159.687C149.375 158.687 158.25 162.563 158.312 162.625C158.437 162.688 158.562 162.75 158.687 162.75H158.75C158.875 162.813 159 162.812 159.125 162.812H160.187C160.437 162.75 160.688 162.688 160.938 162.563C160.938 162.563 161 162.562 161 162.5C161.125 162.438 161.25 162.375 161.312 162.312C161.437 162.25 161.563 162.125 161.625 162.063H161.688L161.75 162L161.875 161.875L162 161.75L162.063 161.688C162.125 161.563 162.25 161.5 162.312 161.375C162.312 161.375 162.312 161.312 162.375 161.312C162.437 161.187 162.5 161.125 162.563 161C162.563 161 162.563 160.938 162.625 160.938C162.688 160.813 162.75 160.688 162.75 160.563C162.813 160.438 162.812 160.312 162.812 160.187V159.25C162.812 159.125 162.75 159 162.75 158.875C157.5 141.313 159.625 126.625 169.25 115.25C176.5 106.625 185.5 103.062 185.563 103.062L185.938 102.875H186C186.125 102.812 186.187 102.75 186.312 102.688L186.375 102.625C186.5 102.563 186.563 102.437 186.688 102.375L186.937 102.125C187 101.875 187 101.875 187.063 101.813ZM173.75 96.875H147.812C130.062 86.875 134.812 71.5625 135.938 68.625L153.813 50.75C153.313 54.0625 153.125 57.9375 153.437 62.0625C154.75 78.375 163.937 89.5 173.75 96.875ZM71.875 121C71.4375 115.875 69.4375 109.125 63.0625 103.125H92.625L72 123.75C72 122.875 71.9375 121.938 71.875 121ZM103.25 63.3125C103.875 63.9375 104.563 64.5625 105.25 65.1875C109 68.375 114.813 71.5625 123.063 71.5625H124.125L103.25 92.4375V63.3125ZM97 92.4375L76.375 71.8125C77.25 71.8125 78.1875 71.8125 79.125 71.75C84.25 71.3125 91 69.3125 97 62.9375V92.4375ZM92.5625 96.875H63.4375C64.0625 96.25 64.6875 95.5625 65.3125 94.875C68.625 90.9375 72 84.8125 71.6875 76L92.5625 96.875ZM97 107.562V136.75C96.375 136.125 95.6875 135.5 95 134.875C91.25 131.687 85.4375 128.5 77.1875 128.5H76.125L97 107.562ZM103.25 107.562L123.875 128.188C123 128.188 122.062 128.188 121.125 128.25C116 128.688 109.25 130.688 103.25 137.063V107.562ZM107.687 103.125H136.875C136.25 103.75 135.625 104.437 135 105.125C131.688 109.062 128.312 115.188 128.625 124L107.687 103.125ZM107.687 96.875L128.313 76.25C128.313 77.125 128.313 78.0625 128.375 79C128.813 84.125 130.813 90.875 137.188 96.875H107.687ZM111 35.4375C123.438 46.0625 137.812 47.4375 150 45.6875L131.625 64.0625C112 69.5625 104.563 55.375 103.25 52.5V27.1875C105.25 29.875 107.813 32.75 111 35.4375ZM62.1875 46.6875C78.5 45.375 89.625 36.1875 97 26.375V52.3125C87 70.0625 71.6875 65.3125 68.75 64.1875L50.875 46.3125C54.1875 46.75 58 47 62.1875 46.6875ZM35.5625 89.125C46.1875 76.6875 47.5625 62.3125 45.8125 50.125L64.1875 68.5C69.6875 88.0625 55.5 95.5625 52.625 96.875H27.3125C30 94.875 32.875 92.3125 35.5625 89.125ZM26.5 103.125H52.4375C70.1875 113.125 65.4375 128.438 64.3125 131.375L46.4375 149.25C46.9375 145.937 47.125 142.062 46.8125 137.937C45.5 121.625 36.3125 110.5 26.5 103.125ZM89.25 164.562C79.625 156.375 68.8125 153.688 58.8125 153.688C55.875 153.688 53 153.938 50.25 154.313L68.625 135.938C88.25 130.438 95.6875 144.625 97 147.5V172.812C95 170.125 92.4375 167.25 89.25 164.562ZM138.063 153.313C121.75 154.625 110.625 163.813 103.25 173.625V147.687C113.25 129.937 128.563 134.687 131.5 135.812L149.375 153.688C146.062 153.25 142.25 153 138.063 153.313ZM164.688 110.875C154.063 123.312 152.687 137.687 154.437 149.875L136.063 131.5C130.563 111.875 144.75 104.437 147.625 103.125H172.938C170.25 105.125 167.375 107.687 164.688 110.875Z"/>
</mask>
<path d="M187.063 101.813C187.188 101.625 187.375 101.375 187.437 101.125V101.063C187.5 100.938 187.5 100.813 187.563 100.688C187.563 100.563 187.625 100.438 187.625 100.25V99.75C187.625 99.625 187.563 99.5 187.563 99.375V99.3125C187.563 99.1875 187.5 99.0625 187.437 99V98.9375L187.25 98.5625C187.187 98.4375 187.125 98.375 187.063 98.25L187 98.1875C186.938 98.0625 186.812 98 186.75 97.875C186.659 97.7767 186.553 97.6925 186.437 97.625L186.375 97.5625C186.237 97.5014 186.11 97.4168 186 97.3125C169.875 88.625 161 76.6875 159.75 61.875C158.75 50.5625 162.625 41.6875 162.625 41.625V41.5625C162.688 41.4375 162.75 41.3125 162.75 41.1875V41.125C162.813 41 162.812 40.875 162.812 40.75V39.75C162.802 39.5098 162.738 39.275 162.625 39.0625C162.625 39.0625 162.625 39 162.563 39C162.514 38.8879 162.451 38.7828 162.375 38.6875C162.312 38.5625 162.188 38.4375 162.125 38.375V38.3125L162.063 38.25L161.937 38.125L161.812 38L161.75 37.9375C161.625 37.875 161.562 37.75 161.437 37.6875C161.437 37.6875 161.375 37.6875 161.375 37.625C161.312 37.625 161.188 37.5625 161.125 37.5C161.125 37.5 161.063 37.5 161.063 37.4375C160.938 37.375 160.812 37.3125 160.687 37.3125H160.625C160.5 37.25 160.375 37.25 160.25 37.25H159.187C159.062 37.25 158.937 37.3125 158.812 37.3125C141.25 42.5625 126.563 40.4375 115.188 30.8125C106.563 23.5625 103 14.5625 103 14.5L102.813 14.125C102.75 14 102.688 13.9375 102.625 13.8125L102.562 13.75C102.5 13.625 102.375 13.5625 102.313 13.4375L102.062 13.1875L102 13.125C101.812 13 101.562 12.8125 101.312 12.75H101.25C101.125 12.6875 101 12.6875 100.875 12.625C100.625 12.5625 100.5 12.5 100.375 12.5H99.8125C99.6875 12.5 99.5625 12.5625 99.4375 12.5625H99.375C99.25 12.5625 99.1875 12.625 99.0625 12.6875C99.0625 12.6875 99 12.6875 99 12.75L98.625 12.9375H98.5625C98.4375 13 98.375 13.0625 98.25 13.125L98.1875 13.1875C98.0625 13.25 98 13.375 97.875 13.4375L97.625 13.6875L97.5625 13.75C97.5 13.875 97.4375 14 97.375 14.0625C88.6875 30.1875 76.75 39.0625 61.9375 40.3125C50.6875 41.4375 41.8125 37.5 41.75 37.5H41.6875L41.3125 37.3125H41.25C41.125 37.3125 41 37.25 40.9375 37.25H39.9375C39.6875 37.3125 39.4375 37.375 39.1875 37.5C39.1875 37.5 39.125 37.5 39.125 37.5625C39 37.5625 38.875 37.625 38.8125 37.6875C38.625 37.8125 38.5625 37.875 38.4375 37.9375H38.375L38.3125 38C38.3125 38.0625 38.3125 38.125 38.25 38.125C38.1875 38.1875 38.1875 38.25 38.125 38.25L38.0625 38.3125C38 38.4375 37.875 38.5625 37.8125 38.6875C37.8125 38.6875 37.8125 38.75 37.75 38.75C37.75 38.8125 37.6875 38.9375 37.625 39C37.625 39 37.625 39.0625 37.5625 39.0625C37.5625 39.1875 37.5 39.3125 37.4375 39.5C37.4375 39.625 37.375 39.75 37.375 39.875V40.8125C37.375 40.9375 37.4375 41.0625 37.4375 41.1875C42.6875 58.75 40.5625 73.4375 30.9375 84.8125C23.6875 93.4375 14.75 96.9375 14.5625 97L14.1875 97.1875H14.125C14 97.25 13.9375 97.3125 13.8125 97.375L13.75 97.4375C13.625 97.5 13.5625 97.625 13.4375 97.6875L13.375 97.75C13.3125 97.8125 13.25 97.9375 13.125 98L13.0625 98.0625C12.9375 98.25 12.8125 98.5 12.6875 98.75V98.8125C12.625 98.9375 12.625 99.0625 12.5625 99.1875C12.5625 99.3125 12.5 99.4375 12.5 99.5625V100.063C12.5 100.188 12.5625 100.312 12.5625 100.437V100.5C12.5625 100.625 12.625 100.75 12.6875 100.812V100.875L12.875 101.25C12.9375 101.375 13 101.438 13.0625 101.562L13.125 101.625C13.1875 101.75 13.3125 101.812 13.375 101.937C13.4375 102 13.5625 102.125 13.6875 102.188L13.75 102.25C13.875 102.313 14 102.375 14.125 102.5C30.25 111.187 39.125 123.125 40.375 137.937C41.5 149.437 37.625 158.313 37.625 158.375V158.438C37.5625 158.563 37.5 158.687 37.5 158.812V158.875C37.4375 159 37.4375 159.125 37.4375 159.25V160.25C37.5 160.5 37.5625 160.75 37.6875 161C37.6875 161 37.6875 161.063 37.75 161.063C37.8125 161.188 37.875 161.312 37.9375 161.375C38 161.5 38.125 161.625 38.1875 161.688V161.75L38.25 161.812L38.375 161.937L38.5 162.063L38.5625 162.125C38.6875 162.188 38.75 162.312 38.875 162.375C38.875 162.375 38.9375 162.375 38.9375 162.437C39.0625 162.5 39.125 162.563 39.25 162.625C39.25 162.625 39.3125 162.625 39.3125 162.688C39.4375 162.75 39.5625 162.812 39.6875 162.812H39.75C39.875 162.875 40 162.875 40.125 162.875H41.0625C41.1875 162.875 41.3125 162.812 41.4375 162.812C59 157.5 73.6875 159.688 85.0625 169.313C93.6875 176.563 97.25 185.563 97.25 185.625L97.4375 186C97.5 186.125 97.5625 186.187 97.625 186.312L97.6875 186.375C97.75 186.5 97.875 186.563 97.9375 186.688L98.1875 186.937L98.25 187C98.4375 187.125 98.6875 187.312 98.9375 187.375H99C99.125 187.437 99.25 187.438 99.375 187.5C99.5 187.5 99.625 187.563 99.75 187.563H100.5C100.625 187.563 100.687 187.5 100.812 187.5H100.875C101.12 187.434 101.352 187.329 101.562 187.188L101.625 187.125C101.688 187.063 101.812 187 101.875 186.937L101.937 186.875C102.062 186.812 102.125 186.688 102.188 186.625L102.25 186.563C102.313 186.5 102.375 186.437 102.437 186.312L102.5 186.25C102.562 186.125 102.625 186.062 102.688 185.938C111.375 169.813 123.313 160.937 138.125 159.687C149.375 158.687 158.25 162.563 158.312 162.625C158.437 162.688 158.562 162.75 158.687 162.75H158.75C158.875 162.813 159 162.812 159.125 162.812H160.187C160.437 162.75 160.688 162.688 160.938 162.563C160.938 162.563 161 162.562 161 162.5C161.125 162.438 161.25 162.375 161.312 162.312C161.437 162.25 161.563 162.125 161.625 162.063H161.688L161.75 162L161.875 161.875L162 161.75L162.063 161.688C162.125 161.563 162.25 161.5 162.312 161.375C162.312 161.375 162.312 161.312 162.375 161.312C162.437 161.187 162.5 161.125 162.563 161C162.563 161 162.563 160.938 162.625 160.938C162.688 160.813 162.75 160.688 162.75 160.563C162.813 160.438 162.812 160.312 162.812 160.187V159.25C162.812 159.125 162.75 159 162.75 158.875C157.5 141.313 159.625 126.625 169.25 115.25C176.5 106.625 185.5 103.062 185.563 103.062L185.938 102.875H186C186.125 102.812 186.187 102.75 186.312 102.688L186.375 102.625C186.5 102.563 186.563 102.437 186.688 102.375L186.937 102.125C187 101.875 187 101.875 187.063 101.813ZM173.75 96.875H147.812C130.062 86.875 134.812 71.5625 135.938 68.625L153.813 50.75C153.313 54.0625 153.125 57.9375 153.437 62.0625C154.75 78.375 163.937 89.5 173.75 96.875ZM71.875 121C71.4375 115.875 69.4375 109.125 63.0625 103.125H92.625L72 123.75C72 122.875 71.9375 121.938 71.875 121ZM103.25 63.3125C103.875 63.9375 104.563 64.5625 105.25 65.1875C109 68.375 114.813 71.5625 123.063 71.5625H124.125L103.25 92.4375V63.3125ZM97 92.4375L76.375 71.8125C77.25 71.8125 78.1875 71.8125 79.125 71.75C84.25 71.3125 91 69.3125 97 62.9375V92.4375ZM92.5625 96.875H63.4375C64.0625 96.25 64.6875 95.5625 65.3125 94.875C68.625 90.9375 72 84.8125 71.6875 76L92.5625 96.875ZM97 107.562V136.75C96.375 136.125 95.6875 135.5 95 134.875C91.25 131.687 85.4375 128.5 77.1875 128.5H76.125L97 107.562ZM103.25 107.562L123.875 128.188C123 128.188 122.062 128.188 121.125 128.25C116 128.688 109.25 130.688 103.25 137.063V107.562ZM107.687 103.125H136.875C136.25 103.75 135.625 104.437 135 105.125C131.688 109.062 128.312 115.188 128.625 124L107.687 103.125ZM107.687 96.875L128.313 76.25C128.313 77.125 128.313 78.0625 128.375 79C128.813 84.125 130.813 90.875 137.188 96.875H107.687ZM111 35.4375C123.438 46.0625 137.812 47.4375 150 45.6875L131.625 64.0625C112 69.5625 104.563 55.375 103.25 52.5V27.1875C105.25 29.875 107.813 32.75 111 35.4375ZM62.1875 46.6875C78.5 45.375 89.625 36.1875 97 26.375V52.3125C87 70.0625 71.6875 65.3125 68.75 64.1875L50.875 46.3125C54.1875 46.75 58 47 62.1875 46.6875ZM35.5625 89.125C46.1875 76.6875 47.5625 62.3125 45.8125 50.125L64.1875 68.5C69.6875 88.0625 55.5 95.5625 52.625 96.875H27.3125C30 94.875 32.875 92.3125 35.5625 89.125ZM26.5 103.125H52.4375C70.1875 113.125 65.4375 128.438 64.3125 131.375L46.4375 149.25C46.9375 145.937 47.125 142.062 46.8125 137.937C45.5 121.625 36.3125 110.5 26.5 103.125ZM89.25 164.562C79.625 156.375 68.8125 153.688 58.8125 153.688C55.875 153.688 53 153.938 50.25 154.313L68.625 135.938C88.25 130.438 95.6875 144.625 97 147.5V172.812C95 170.125 92.4375 167.25 89.25 164.562ZM138.063 153.313C121.75 154.625 110.625 163.813 103.25 173.625V147.687C113.25 129.937 128.563 134.687 131.5 135.812L149.375 153.688C146.062 153.25 142.25 153 138.063 153.313ZM164.688 110.875C154.063 123.312 152.687 137.687 154.437 149.875L136.063 131.5C130.563 111.875 144.75 104.437 147.625 103.125H172.938C170.25 105.125 167.375 107.687 164.688 110.875Z" fill="white"/>
<path d="M187.063 101.813C187.188 101.625 187.375 101.375 187.437 101.125V101.063C187.5 100.938 187.5 100.813 187.563 100.688C187.563 100.563 187.625 100.438 187.625 100.25V99.75C187.625 99.625 187.563 99.5 187.563 99.375V99.3125C187.563 99.1875 187.5 99.0625 187.437 99V98.9375L187.25 98.5625C187.187 98.4375 187.125 98.375 187.063 98.25L187 98.1875C186.938 98.0625 186.812 98 186.75 97.875C186.659 97.7767 186.553 97.6925 186.437 97.625L186.375 97.5625C186.237 97.5014 186.11 97.4168 186 97.3125C169.875 88.625 161 76.6875 159.75 61.875C158.75 50.5625 162.625 41.6875 162.625 41.625V41.5625C162.688 41.4375 162.75 41.3125 162.75 41.1875V41.125C162.813 41 162.812 40.875 162.812 40.75V39.75C162.802 39.5098 162.738 39.275 162.625 39.0625C162.625 39.0625 162.625 39 162.563 39C162.514 38.8879 162.451 38.7828 162.375 38.6875C162.312 38.5625 162.188 38.4375 162.125 38.375V38.3125L162.063 38.25L161.937 38.125L161.812 38L161.75 37.9375C161.625 37.875 161.562 37.75 161.437 37.6875C161.437 37.6875 161.375 37.6875 161.375 37.625C161.312 37.625 161.188 37.5625 161.125 37.5C161.125 37.5 161.063 37.5 161.063 37.4375C160.938 37.375 160.812 37.3125 160.687 37.3125H160.625C160.5 37.25 160.375 37.25 160.25 37.25H159.187C159.062 37.25 158.937 37.3125 158.812 37.3125C141.25 42.5625 126.563 40.4375 115.188 30.8125C106.563 23.5625 103 14.5625 103 14.5L102.813 14.125C102.75 14 102.688 13.9375 102.625 13.8125L102.562 13.75C102.5 13.625 102.375 13.5625 102.313 13.4375L102.062 13.1875L102 13.125C101.812 13 101.562 12.8125 101.312 12.75H101.25C101.125 12.6875 101 12.6875 100.875 12.625C100.625 12.5625 100.5 12.5 100.375 12.5H99.8125C99.6875 12.5 99.5625 12.5625 99.4375 12.5625H99.375C99.25 12.5625 99.1875 12.625 99.0625 12.6875C99.0625 12.6875 99 12.6875 99 12.75L98.625 12.9375H98.5625C98.4375 13 98.375 13.0625 98.25 13.125L98.1875 13.1875C98.0625 13.25 98 13.375 97.875 13.4375L97.625 13.6875L97.5625 13.75C97.5 13.875 97.4375 14 97.375 14.0625C88.6875 30.1875 76.75 39.0625 61.9375 40.3125C50.6875 41.4375 41.8125 37.5 41.75 37.5H41.6875L41.3125 37.3125H41.25C41.125 37.3125 41 37.25 40.9375 37.25H39.9375C39.6875 37.3125 39.4375 37.375 39.1875 37.5C39.1875 37.5 39.125 37.5 39.125 37.5625C39 37.5625 38.875 37.625 38.8125 37.6875C38.625 37.8125 38.5625 37.875 38.4375 37.9375H38.375L38.3125 38C38.3125 38.0625 38.3125 38.125 38.25 38.125C38.1875 38.1875 38.1875 38.25 38.125 38.25L38.0625 38.3125C38 38.4375 37.875 38.5625 37.8125 38.6875C37.8125 38.6875 37.8125 38.75 37.75 38.75C37.75 38.8125 37.6875 38.9375 37.625 39C37.625 39 37.625 39.0625 37.5625 39.0625C37.5625 39.1875 37.5 39.3125 37.4375 39.5C37.4375 39.625 37.375 39.75 37.375 39.875V40.8125C37.375 40.9375 37.4375 41.0625 37.4375 41.1875C42.6875 58.75 40.5625 73.4375 30.9375 84.8125C23.6875 93.4375 14.75 96.9375 14.5625 97L14.1875 97.1875H14.125C14 97.25 13.9375 97.3125 13.8125 97.375L13.75 97.4375C13.625 97.5 13.5625 97.625 13.4375 97.6875L13.375 97.75C13.3125 97.8125 13.25 97.9375 13.125 98L13.0625 98.0625C12.9375 98.25 12.8125 98.5 12.6875 98.75V98.8125C12.625 98.9375 12.625 99.0625 12.5625 99.1875C12.5625 99.3125 12.5 99.4375 12.5 99.5625V100.063C12.5 100.188 12.5625 100.312 12.5625 100.437V100.5C12.5625 100.625 12.625 100.75 12.6875 100.812V100.875L12.875 101.25C12.9375 101.375 13 101.438 13.0625 101.562L13.125 101.625C13.1875 101.75 13.3125 101.812 13.375 101.937C13.4375 102 13.5625 102.125 13.6875 102.188L13.75 102.25C13.875 102.313 14 102.375 14.125 102.5C30.25 111.187 39.125 123.125 40.375 137.937C41.5 149.437 37.625 158.313 37.625 158.375V158.438C37.5625 158.563 37.5 158.687 37.5 158.812V158.875C37.4375 159 37.4375 159.125 37.4375 159.25V160.25C37.5 160.5 37.5625 160.75 37.6875 161C37.6875 161 37.6875 161.063 37.75 161.063C37.8125 161.188 37.875 161.312 37.9375 161.375C38 161.5 38.125 161.625 38.1875 161.688V161.75L38.25 161.812L38.375 161.937L38.5 162.063L38.5625 162.125C38.6875 162.188 38.75 162.312 38.875 162.375C38.875 162.375 38.9375 162.375 38.9375 162.437C39.0625 162.5 39.125 162.563 39.25 162.625C39.25 162.625 39.3125 162.625 39.3125 162.688C39.4375 162.75 39.5625 162.812 39.6875 162.812H39.75C39.875 162.875 40 162.875 40.125 162.875H41.0625C41.1875 162.875 41.3125 162.812 41.4375 162.812C59 157.5 73.6875 159.688 85.0625 169.313C93.6875 176.563 97.25 185.563 97.25 185.625L97.4375 186C97.5 186.125 97.5625 186.187 97.625 186.312L97.6875 186.375C97.75 186.5 97.875 186.563 97.9375 186.688L98.1875 186.937L98.25 187C98.4375 187.125 98.6875 187.312 98.9375 187.375H99C99.125 187.437 99.25 187.438 99.375 187.5C99.5 187.5 99.625 187.563 99.75 187.563H100.5C100.625 187.563 100.687 187.5 100.812 187.5H100.875C101.12 187.434 101.352 187.329 101.562 187.188L101.625 187.125C101.688 187.063 101.812 187 101.875 186.937L101.937 186.875C102.062 186.812 102.125 186.688 102.188 186.625L102.25 186.563C102.313 186.5 102.375 186.437 102.437 186.312L102.5 186.25C102.562 186.125 102.625 186.062 102.688 185.938C111.375 169.813 123.313 160.937 138.125 159.687C149.375 158.687 158.25 162.563 158.312 162.625C158.437 162.688 158.562 162.75 158.687 162.75H158.75C158.875 162.813 159 162.812 159.125 162.812H160.187C160.437 162.75 160.688 162.688 160.938 162.563C160.938 162.563 161 162.562 161 162.5C161.125 162.438 161.25 162.375 161.312 162.312C161.437 162.25 161.563 162.125 161.625 162.063H161.688L161.75 162L161.875 161.875L162 161.75L162.063 161.688C162.125 161.563 162.25 161.5 162.312 161.375C162.312 161.375 162.312 161.312 162.375 161.312C162.437 161.187 162.5 161.125 162.563 161C162.563 161 162.563 160.938 162.625 160.938C162.688 160.813 162.75 160.688 162.75 160.563C162.813 160.438 162.812 160.312 162.812 160.187V159.25C162.812 159.125 162.75 159 162.75 158.875C157.5 141.313 159.625 126.625 169.25 115.25C176.5 106.625 185.5 103.062 185.563 103.062L185.938 102.875H186C186.125 102.812 186.187 102.75 186.312 102.688L186.375 102.625C186.5 102.563 186.563 102.437 186.688 102.375L186.937 102.125C187 101.875 187 101.875 187.063 101.813ZM173.75 96.875H147.812C130.062 86.875 134.812 71.5625 135.938 68.625L153.813 50.75C153.313 54.0625 153.125 57.9375 153.437 62.0625C154.75 78.375 163.937 89.5 173.75 96.875ZM71.875 121C71.4375 115.875 69.4375 109.125 63.0625 103.125H92.625L72 123.75C72 122.875 71.9375 121.938 71.875 121ZM103.25 63.3125C103.875 63.9375 104.563 64.5625 105.25 65.1875C109 68.375 114.813 71.5625 123.063 71.5625H124.125L103.25 92.4375V63.3125ZM97 92.4375L76.375 71.8125C77.25 71.8125 78.1875 71.8125 79.125 71.75C84.25 71.3125 91 69.3125 97 62.9375V92.4375ZM92.5625 96.875H63.4375C64.0625 96.25 64.6875 95.5625 65.3125 94.875C68.625 90.9375 72 84.8125 71.6875 76L92.5625 96.875ZM97 107.562V136.75C96.375 136.125 95.6875 135.5 95 134.875C91.25 131.687 85.4375 128.5 77.1875 128.5H76.125L97 107.562ZM103.25 107.562L123.875 128.188C123 128.188 122.062 128.188 121.125 128.25C116 128.688 109.25 130.688 103.25 137.063V107.562ZM107.687 103.125H136.875C136.25 103.75 135.625 104.437 135 105.125C131.688 109.062 128.312 115.188 128.625 124L107.687 103.125ZM107.687 96.875L128.313 76.25C128.313 77.125 128.313 78.0625 128.375 79C128.813 84.125 130.813 90.875 137.188 96.875H107.687ZM111 35.4375C123.438 46.0625 137.812 47.4375 150 45.6875L131.625 64.0625C112 69.5625 104.563 55.375 103.25 52.5V27.1875C105.25 29.875 107.813 32.75 111 35.4375ZM62.1875 46.6875C78.5 45.375 89.625 36.1875 97 26.375V52.3125C87 70.0625 71.6875 65.3125 68.75 64.1875L50.875 46.3125C54.1875 46.75 58 47 62.1875 46.6875ZM35.5625 89.125C46.1875 76.6875 47.5625 62.3125 45.8125 50.125L64.1875 68.5C69.6875 88.0625 55.5 95.5625 52.625 96.875H27.3125C30 94.875 32.875 92.3125 35.5625 89.125ZM26.5 103.125H52.4375C70.1875 113.125 65.4375 128.438 64.3125 131.375L46.4375 149.25C46.9375 145.937 47.125 142.062 46.8125 137.937C45.5 121.625 36.3125 110.5 26.5 103.125ZM89.25 164.562C79.625 156.375 68.8125 153.688 58.8125 153.688C55.875 153.688 53 153.938 50.25 154.313L68.625 135.938C88.25 130.438 95.6875 144.625 97 147.5V172.812C95 170.125 92.4375 167.25 89.25 164.562ZM138.063 153.313C121.75 154.625 110.625 163.813 103.25 173.625V147.687C113.25 129.937 128.563 134.687 131.5 135.812L149.375 153.688C146.062 153.25 142.25 153 138.063 153.313ZM164.688 110.875C154.063 123.312 152.687 137.687 154.437 149.875L136.063 131.5C130.563 111.875 144.75 104.437 147.625 103.125H172.938C170.25 105.125 167.375 107.687 164.688 110.875Z" stroke="white" stroke-width="3" mask="url(#path-1-outside-1_49_105)"/>
</svg>
